<?xml version="1.0" encoding="UTF-8"?>
<svg version="1.1" xmlns="http://www.w3.org/2000/svg" width="512" height="512">
<path d="M0 0 C1.01790619 0.00215515 2.03581238 0.0043103 3.08456421 0.00653076 C17.69363523 0.05620146 32.02575853 0.30709809 46.375 3.3125 C47.34985352 3.51117676 48.32470703 3.70985352 49.32910156 3.91455078 C97.7109774 14.03517194 141.69928269 35.9516877 177.375 70.3125 C178.3640332 71.26068604 178.3640332 71.26068604 179.37304688 72.22802734 C188.86130305 81.37247479 197.6012044 90.66984009 205.375 101.3125 C206.23306152 102.46355017 207.09113451 103.61459177 207.94921875 104.765625 C213.98736829 112.95680614 219.34595521 121.47054105 224.375 130.3125 C224.73948242 130.94430176 225.10396484 131.57610352 225.47949219 132.22705078 C247.00981855 169.84336237 256.83759735 212.56515288 256.75 255.625 C256.74918427 257.13927582 256.74918427 257.13927582 256.74835205 258.68414307 C256.70758601 275.19373539 255.80029309 291.11032001 252.375 307.3125 C252.15537598 308.35438477 251.93575195 309.39626953 251.70947266 310.46972656 C241.61185215 356.76299311 219.25271242 399.17663721 186.375 433.3125 C185.74287598 433.97185547 185.11075195 434.63121094 184.45947266 435.31054688 C175.31502521 444.79880305 166.01765991 453.5387044 155.375 461.3125 C154.22394983 462.17056152 153.07290823 463.02863451 151.921875 463.88671875 C143.73224019 469.92427396 135.22961724 475.30707302 126.375 480.3125 C125.66778809 480.7146875 124.96057617 481.116875 124.23193359 481.53125 C98.08439144 496.25254051 69.06333558 505.95171333 39.375 510.3125 C38.17037109 510.48982666 36.96574219 510.66715332 35.72460938 510.84985352 C24.06732646 512.448825 12.50313902 512.6709053 0.75 512.625 C-0.70483292 512.62226578 -0.70483292 512.62226578 -2.1890564 512.61947632 C-16.54056055 512.57408309 -30.50442918 512.0687347 -44.625 509.3125 C-45.52202637 509.15152832 -46.41905273 508.99055664 -47.34326172 508.82470703 C-96.03093124 500.01471851 -141.05505908 476.57143453 -176.625 442.3125 C-177.28435547 441.68037598 -177.94371094 441.04825195 -178.62304688 440.39697266 C-188.11130305 431.25252521 -196.8512044 421.95515991 -204.625 411.3125 C-205.48306152 410.16144983 -206.34113451 409.01040823 -207.19921875 407.859375 C-213.23677396 399.66974019 -218.61957302 391.16711724 -223.625 382.3125 C-224.0271875 381.60528809 -224.429375 380.89807617 -224.84375 380.16943359 C-237.8691741 357.03404164 -246.61801461 331.86287591 -251.9375 305.875 C-252.08485596 305.15610596 -252.23221191 304.43721191 -252.3840332 303.6965332 C-255.35789088 288.05024391 -255.99800362 272.57681954 -255.9375 256.6875 C-255.93534485 255.66959381 -255.9331897 254.65168762 -255.93096924 253.60293579 C-255.88129854 238.99386477 -255.63040191 224.66174147 -252.625 210.3125 C-252.42632324 209.33764648 -252.22764648 208.36279297 -252.02294922 207.35839844 C-241.90232806 158.9765226 -219.9858123 114.98821731 -185.625 79.3125 C-184.99287598 78.65314453 -184.36075195 77.99378906 -183.70947266 77.31445312 C-174.56502521 67.82619695 -165.26765991 59.0862956 -154.625 51.3125 C-153.47394983 50.45443848 -152.32290823 49.59636549 -151.171875 48.73828125 C-142.98224019 42.70072604 -134.47961724 37.31792698 -125.625 32.3125 C-124.91778809 31.9103125 -124.21057617 31.508125 -123.48193359 31.09375 C-100.34654164 18.0683259 -75.17537591 9.31948539 -49.1875 4 C-48.46860596 3.85264404 -47.74971191 3.70528809 -47.0090332 3.5534668 C-31.36274391 0.57960912 -15.88931954 -0.06050362 0 0 Z " fill="#FEAA20" transform="translate(255.625,-0.3125)"/>
<path d="M0 0 C1.22871168 0.69346739 2.45256877 1.3955943 3.671875 2.10546875 C9.75289634 5.49738765 15.7599903 8.20209342 22.421875 10.29296875 C23.55625 10.66421875 24.690625 11.03546875 25.859375 11.41796875 C50.93364618 17.57656167 79.75779039 15.43108191 102.27124023 1.9675293 C103.93905448 0.92299556 105.57634006 -0.16983931 107.2109375 -1.265625 C111.93375106 -3.38572014 115.66257903 -2.65149057 120.37695312 -1.0378418 C122.41429935 -0.20946745 124.38303474 0.70317267 126.359375 1.66796875 C127.08809814 2.01883545 127.81682129 2.36970215 128.56762695 2.73120117 C136.96637011 6.89408781 144.7646875 11.9034577 152.421875 17.29296875 C153.02064453 17.71384766 153.61941406 18.13472656 154.23632812 18.56835938 C191.94853233 45.56638606 216.0400634 87.0424887 223.78564453 132.42431641 C224.51326377 137.03401744 225.00397271 141.64380581 225.421875 146.29296875 C225.5765625 147.54464844 225.73125 148.79632813 225.890625 150.0859375 C226.26338386 154.91627106 226.55051799 158.63955951 223.75 162.7421875 C221.12074396 165.19939491 218.36566339 167.22194387 215.421875 169.29296875 C214.23077061 170.21767272 213.04480348 171.14902111 211.86328125 172.0859375 C176.94892811 199.48565653 135.39102642 217.834537 91.421875 224.29296875 C90.21724609 224.47029541 89.01261719 224.64762207 87.77148438 224.83032227 C76.11420146 226.42929375 64.55001402 226.65137405 52.796875 226.60546875 C51.82698639 226.60364594 50.85709778 226.60182312 49.8578186 226.59994507 C35.50631445 226.55455184 21.54244582 226.04920345 7.421875 223.29296875 C6.52484863 223.13199707 5.62782227 222.97102539 4.70361328 222.80517578 C-37.75365885 215.12257187 -77.86290878 196.25736766 -110.94824219 168.59960938 C-112.58876474 167.24304222 -112.58876474 167.24304222 -114.51269531 166.01757812 C-117.43570682 163.94260996 -119.27891161 162.47486771 -120.17895508 158.91967773 C-120.38022854 156.05250986 -120.34129653 153.28878771 -120.203125 150.41796875 C-120.17637695 149.39437256 -120.14962891 148.37077637 -120.12207031 147.31616211 C-119.80725735 138.73885429 -118.60230623 130.64163041 -116.578125 122.29296875 C-116.28367202 120.96907924 -115.99072751 119.64485341 -115.69921875 118.3203125 C-108.66067559 87.334931 -92.38057942 60.18234905 -70.578125 37.29296875 C-69.53785156 36.15601563 -69.53785156 36.15601563 -68.4765625 34.99609375 C-54.75114415 20.47576701 -37.3419847 9.9692941 -19.578125 1.16796875 C-18.78873535 0.76481445 -17.9993457 0.36166016 -17.18603516 -0.05371094 C-10.70532065 -3.15552069 -6.6436687 -3.16952317 0 0 Z " fill="#4B5BE5" transform="translate(203.578125,285.70703125)"/>
<path d="M0 0 C66.42804872 0 128.94720928 23.71829785 177 70 C177.9890332 70.94818604 177.9890332 70.94818604 178.99804688 71.91552734 C188.48630305 81.05997479 197.2262044 90.35734009 205 101 C205.85806152 102.15105017 206.71613451 103.30209177 207.57421875 104.453125 C213.61236829 112.64430614 218.97095521 121.15804105 224 130 C224.36448242 130.63180176 224.72896484 131.26360352 225.10449219 131.91455078 C246.63481855 169.53086237 256.46259735 212.25265288 256.375 255.3125 C256.37418427 256.82677582 256.37418427 256.82677582 256.37335205 258.37164307 C256.33258601 274.88123539 255.42529309 290.79782001 252 307 C251.78037598 308.04188477 251.56075195 309.08376953 251.33447266 310.15722656 C240.41320522 360.22656163 215.28223888 403.568906 179.375 439.75 C178.85365479 440.27609863 178.33230957 440.80219727 177.79516602 441.34423828 C174.12281513 445 174.12281513 445 173 445 C172.93530518 444.23147705 172.87061035 443.4629541 172.80395508 442.67114258 C168.30193771 390.8071296 150.28743977 345.89256443 110.03515625 311.31201172 C95.31802422 299.20443152 78.61620611 290.11937709 61 283 C61 282.34 61 281.68 61 281 C62.4103177 279.77572421 63.88148931 278.62128187 65.375 277.5 C84.89792987 262.16252195 96.80903437 241.78634163 103 218 C103.24621094 217.05511719 103.49242187 216.11023438 103.74609375 215.13671875 C106.92236075 200.00016361 106.14450744 182.8400105 102 168 C101.6596875 166.7728125 101.319375 165.545625 100.96875 164.28125 C92.78250178 137.51000582 74.62699795 115.37477554 50.10009766 101.9609375 C41.43943846 97.42174238 32.51077979 94.29650536 23 92 C22.12859375 91.78601563 21.2571875 91.57203125 20.359375 91.3515625 C13.51196 89.82746045 7.14354465 89.54950343 0 89 C0 59.63 0 30.26 0 0 Z " fill="#FE8900" transform="translate(256,0)"/>
<path d="M0 0 C21.86865063 18.168776 37.05996924 42.98890579 40.10546875 71.62890625 C41.83019803 101.21044252 35.07482511 129.0693787 15.5390625 151.95703125 C9.82377767 158.23191861 3.96821477 164.5985601 -2.89453125 169.62890625 C-3.55453125 169.62890625 -4.21453125 169.62890625 -4.89453125 169.62890625 C-4.89453125 170.28890625 -4.89453125 170.94890625 -4.89453125 171.62890625 C-29.87213782 186.0037737 -60.08454242 195.32396133 -88.89453125 187.62890625 C-100.18056494 184.53457486 -110.31289592 180.19953513 -120.515625 174.484375 C-123.7470033 172.57838812 -123.7470033 172.57838812 -126.89453125 171.62890625 C-128.59223685 169.99386764 -130.25444889 168.3217398 -131.89453125 166.62890625 C-133.80611563 164.91488786 -135.72304197 163.20681342 -137.64453125 161.50390625 C-157.07629307 143.84491901 -170.14081247 118.19321894 -172.10302734 91.82739258 C-172.19673549 89.00796721 -172.22336902 86.19981462 -172.20703125 83.37890625 C-172.2028418 82.37819092 -172.19865234 81.37747559 -172.19433594 80.34643555 C-172.0698867 72.12020842 -171.0929758 64.58518177 -168.89453125 56.62890625 C-168.62769531 55.63375 -168.36085937 54.63859375 -168.0859375 53.61328125 C-160.95122814 29.89433636 -145.16764217 7.58730568 -123.89453125 -5.37109375 C-122.81429687 -6.03753906 -121.7340625 -6.70398438 -120.62109375 -7.390625 C-82.6679701 -30.25797875 -34.99136937 -27.31822893 0 0 Z " fill="#FEC372" transform="translate(321.89453125,111.37109375)"/>
<path d="M0 0 C1.22871168 0.69346739 2.45256877 1.3955943 3.671875 2.10546875 C9.75289634 5.49738765 15.7599903 8.20209342 22.421875 10.29296875 C23.55625 10.66421875 24.690625 11.03546875 25.859375 11.41796875 C34.66839988 13.58158889 43.37196819 14.47024995 52.421875 15.29296875 C52.421875 84.92296875 52.421875 154.55296875 52.421875 226.29296875 C26.86099627 226.29296875 26.86099627 226.29296875 18.984375 225.10546875 C18.04303711 224.97092285 17.10169922 224.83637695 16.13183594 224.69775391 C-30.63034111 217.70128736 -74.59128986 198.9922848 -110.94824219 168.59960938 C-112.58876474 167.24304222 -112.58876474 167.24304222 -114.51269531 166.01757812 C-117.43570682 163.94260996 -119.27891161 162.47486771 -120.17895508 158.91967773 C-120.38022854 156.05250986 -120.34129653 153.28878771 -120.203125 150.41796875 C-120.17637695 149.39437256 -120.14962891 148.37077637 -120.12207031 147.31616211 C-119.80725735 138.73885429 -118.60230623 130.64163041 -116.578125 122.29296875 C-116.28367202 120.96907924 -115.99072751 119.64485341 -115.69921875 118.3203125 C-108.66067559 87.334931 -92.38057942 60.18234905 -70.578125 37.29296875 C-69.53785156 36.15601563 -69.53785156 36.15601563 -68.4765625 34.99609375 C-54.75114415 20.47576701 -37.3419847 9.9692941 -19.578125 1.16796875 C-18.78873535 0.76481445 -17.9993457 0.36166016 -17.18603516 -0.05371094 C-10.70532065 -3.15552069 -6.6436687 -3.16952317 0 0 Z " fill="#7985EA" transform="translate(203.578125,285.70703125)"/>
<path d="M0 0 C0 69.63 0 139.26 0 211 C-20.33620559 211 -36.99706959 205.7277411 -54.62109375 195.85546875 C-57.85247205 193.94948187 -57.85247205 193.94948187 -61 193 C-62.6977056 191.36496139 -64.35991764 189.69283355 -66 188 C-67.91158438 186.28598161 -69.82851072 184.57790717 -71.75 182.875 C-91.18176182 165.21601276 -104.24628122 139.56431269 -106.20849609 113.19848633 C-106.30220424 110.37906096 -106.32883777 107.57090837 -106.3125 104.75 C-106.30831055 103.74928467 -106.30412109 102.74856934 -106.29980469 101.7175293 C-106.17535545 93.49130217 -105.19844455 85.95627552 -103 78 C-102.73316406 77.00484375 -102.46632812 76.0096875 -102.19140625 74.984375 C-95.05669689 51.26543011 -79.27311092 28.95839943 -58 16 C-56.91976562 15.33355469 -55.83953125 14.66710937 -54.7265625 13.98046875 C-36.97245242 3.28982182 -21.04821313 0 0 0 Z " fill="#FEDAA8" transform="translate(256,90)"/>
</svg>
