<?xml version="1.0" encoding="UTF-8"?>
<svg version="1.1" xmlns="http://www.w3.org/2000/svg" width="512" height="512">
<path d="M0 0 C1.65512663 -0.00350649 3.31024986 -0.009171 4.96536255 -0.01681519 C9.43433273 -0.03099374 13.9026825 -0.01407217 18.37159324 0.00946999 C23.05947812 0.02965867 27.74733927 0.02369545 32.43525696 0.0213623 C40.30248175 0.02141577 48.16946555 0.0411151 56.03662109 0.07324219 C65.12309729 0.11016896 74.20925847 0.11891136 83.29579991 0.11194468 C92.05345758 0.10563409 100.81100763 0.11640179 109.56864357 0.13591003 C113.28897451 0.1440696 117.00925033 0.14679626 120.72958946 0.1452179 C125.11035002 0.14433727 129.49081242 0.15860278 133.87149429 0.18444443 C135.47626741 0.19158935 137.08107229 0.19369793 138.68585777 0.19032669 C140.8814838 0.18659481 143.07624776 0.20141693 145.27177429 0.2208252 C146.49859767 0.22455391 147.72542105 0.22828262 148.98942089 0.23212433 C156.17681507 1.02503282 161.48685841 4.5110408 166.4621582 9.61523438 C169.70052845 14.14895272 170.57982267 17.96854695 170.61605835 23.47073364 C170.62465881 24.44623672 170.63325928 25.42173981 170.64212036 26.42680359 C170.64851028 28.02272087 170.64851028 28.02272087 170.6550293 29.65087891 C170.66320679 30.77656784 170.67138428 31.90225677 170.67980957 33.0620575 C170.70463907 36.79071524 170.72117447 40.51933494 170.7355957 44.24804688 C170.74091938 45.52270687 170.74624306 46.79736687 170.75172806 48.11065292 C170.77295265 53.47054825 170.79208154 58.83043032 170.80335045 64.1903553 C170.8195646 71.84997567 170.85268889 79.50908684 170.9097513 87.16851532 C170.95326919 93.21800531 170.96911044 99.26726523 170.97548294 105.31692123 C170.98218837 107.88207496 170.99739176 110.4472215 171.02137375 113.01227188 C171.05308552 116.60964563 171.05305195 120.20574511 171.0456543 123.80322266 C171.0702623 125.38092186 171.0702623 125.38092186 171.09536743 126.99049377 C171.02943711 134.85619686 169.17170818 141.9056844 163.4621582 147.61523438 C163.16455498 149.63815136 163.16455498 149.63815136 163.22164917 151.99380493 C163.21889984 152.91369705 163.21615051 153.83358917 163.21331787 154.78135681 C163.22050842 155.79339676 163.22769897 156.80543671 163.23510742 157.84814453 C163.23466934 159.4432914 163.23466934 159.4432914 163.23422241 161.07066345 C163.23561986 164.59862321 163.25120064 168.12637384 163.2668457 171.65429688 C163.27057436 174.09524419 163.27342202 176.53619299 163.27542114 178.97714233 C163.28306922 185.41174427 163.3027278 191.84625639 163.3248291 198.28082275 C163.34526227 204.84280176 163.35441744 211.40479524 163.36450195 217.96679688 C163.38597257 230.84964777 163.41973994 243.7324363 163.4621582 256.61523438 C166.42097489 256.61523438 167.64925115 254.8136639 169.73168945 252.90429688 C175.58763492 248.54208016 182.49295278 248.83727656 189.4621582 249.61523438 C196.30626767 251.70960667 201.64438331 255.52743116 205.4621582 261.61523438 C208.68873034 268.27216215 209.17792755 276.54334477 206.7956543 283.58544922 C204.87183114 287.9781971 202.42514104 292.07021508 199.94262695 296.16601562 C198.3523613 298.79687728 196.81055086 301.4522838 195.2746582 304.11523438 C192.94695179 308.1430793 190.60259926 312.1604374 188.2434082 316.16992188 C184.2375013 322.98459228 180.28372317 329.82860011 176.3371582 336.67773438 C175.70986816 337.76562256 175.08257812 338.85351074 174.4362793 339.97436523 C172.77675496 342.85380929 171.11769465 345.73349559 169.4621582 348.61523438 C168.77892487 349.60184555 168.09569153 350.58845673 167.39175415 351.60496521 C164.6616989 356.42248438 164.91913257 361.16425403 164.97973633 366.58007812 C164.97386757 368.20334518 164.97386757 368.20334518 164.96788025 369.85940552 C164.96191828 372.2007082 164.96505163 374.54204806 164.9763031 376.8833313 C164.99358666 380.59101681 164.98604486 384.29792415 164.9720459 388.00561523 C164.94671931 395.87553296 164.95200611 403.7452953 164.9621582 411.61523438 C164.97392476 420.73671002 164.97253447 429.85784703 164.93809509 438.97927856 C164.93100437 442.6282473 164.9476744 446.27661574 164.96520996 449.92553711 C164.95950182 452.16715823 164.95268441 454.40877689 164.94458008 456.65039062 C164.95589462 457.66150909 164.96720917 458.67262756 164.97886658 459.71438599 C164.91856486 466.69870614 163.69469898 471.09026326 158.86450195 476.35742188 C153.76546593 480.3006764 150.08675583 480.7639715 143.82820129 480.7624054 C143.04315694 480.76608208 142.25811259 480.76975877 141.44927901 480.77354687 C138.8100922 480.78458869 136.17094475 480.78842841 133.53173828 480.79223633 C131.64282099 480.79850063 129.75390494 480.8051474 127.86499023 480.81214905 C122.72636915 480.82956237 117.58775737 480.84011186 112.44911408 480.84835458 C109.23871019 480.85350436 106.02830919 480.85958012 102.81790733 480.86586571 C92.77349994 480.88491929 82.7290999 480.8991497 72.6846779 480.90747768 C61.08990787 480.91724969 49.49532876 480.94356767 37.900626 480.98397857 C28.93915419 481.01414003 19.97773709 481.02894661 11.0162155 481.03225869 C5.66376287 481.03460924 0.31151417 481.04357045 -5.04088402 481.06871986 C-10.07814939 481.09200584 -15.11507664 481.09623161 -20.1523819 481.08595848 C-21.99863879 481.08546313 -23.84491235 481.0917833 -25.69111824 481.10551453 C-28.21747094 481.12324913 -30.74261224 481.11612012 -33.26896667 481.10298157 C-34.35737257 481.11943544 -34.35737257 481.11943544 -35.46776646 481.13622171 C-41.48340142 481.06101556 -46.81946624 479.27867245 -51.18457288 475.00178319 C-56.40968149 468.71279484 -55.07350978 459.78884459 -54.8503418 452.11523438 C-54.8252232 450.61006315 -54.80241631 449.10485148 -54.78198242 447.59960938 C-54.72727846 443.93730118 -54.64120534 440.27652997 -54.5378418 436.61523438 C-63.93535548 436.49085498 -73.33087323 436.4260562 -82.72921085 436.43645191 C-87.09390407 436.43942595 -91.45653563 436.42219926 -95.82080078 436.3581543 C-100.03623049 436.29704747 -104.24867986 436.28985768 -108.4644146 436.31940269 C-110.06917999 436.32130033 -111.67409021 436.30405538 -113.27842903 436.26700783 C-118.24330977 436.15968971 -122.74676151 436.219097 -127.5378418 437.61523438 C-130.91866142 440.88509843 -132.56836123 444.40389512 -134.5378418 448.61523438 C-147.08995556 465.14085461 -167.64219049 477.2130774 -188.19018555 480.33007812 C-214.35639262 482.55893824 -238.26485684 478.10045058 -258.8112793 460.97460938 C-259.71104492 460.19601562 -260.61081055 459.41742188 -261.5378418 458.61523438 C-262.21073242 458.04289062 -262.88362305 457.47054688 -263.5769043 456.88085938 C-277.43781719 444.09590776 -287.53751878 423.51830078 -288.71484375 404.80126953 C-289.10555877 386.33025597 -288.66855225 367.90705915 -278.5378418 351.61523438 C-277.90844853 351.00831033 -277.27905527 350.40138628 -276.63058949 349.77607059 C-267.36462504 340.0790973 -269.46054125 327.08265671 -269.58544922 314.55639648 C-269.58275251 311.89115665 -269.57686883 309.2261023 -269.56695557 306.56089783 C-269.55181802 300.83520628 -269.56538416 295.11017292 -269.59850121 289.38456535 C-269.64613461 281.09567881 -269.64642839 272.80730078 -269.63493399 264.51830966 C-269.6172561 251.05336078 -269.63292878 237.5886762 -269.671875 224.1237793 C-269.70950636 211.07462502 -269.73891257 198.02552261 -269.75195312 184.97631836 C-269.75316963 183.77044015 -269.75316963 183.77044015 -269.75441071 182.54020076 C-269.76289163 173.75642459 -269.76738575 164.97265453 -269.76649189 156.18887424 C-269.76641779 155.41607224 -269.76634368 154.64327024 -269.76626733 153.84705 C-269.76589991 150.75700203 -269.76546221 147.66695423 -269.76448611 144.57690639 C-269.76169381 135.54769531 -269.7712856 126.51870767 -269.80366782 117.48955072 C-269.8236092 111.8255047 -269.83366453 106.16150026 -269.83607056 100.49741977 C-269.83793488 97.23330005 -269.84654388 93.9694331 -269.86516762 90.70536041 C-269.88480271 87.16008398 -269.88593319 83.61524982 -269.88273621 80.06993103 C-269.89819301 78.53737172 -269.89819301 78.53737172 -269.91396207 76.97385162 C-269.86602304 66.79228229 -267.86381899 58.95646248 -260.7253418 51.52929688 C-253.58735444 45.28355794 -246.15376386 44.46164952 -236.92619324 44.49497986 C-235.62734073 44.49369822 -235.62734073 44.49369822 -234.30224878 44.49239069 C-231.40183619 44.49074406 -228.50148148 44.49624393 -225.60107422 44.50170898 C-223.52154542 44.50199106 -221.44201653 44.50183273 -219.36248779 44.50126648 C-213.71626102 44.50097929 -208.07005545 44.50686336 -202.42383361 44.51384044 C-196.52346768 44.52008703 -190.62310127 44.52067881 -184.72273254 44.52186584 C-173.54915668 44.5249753 -162.37559059 44.53318351 -151.20201904 44.54321533 C-138.48146927 44.55438842 -125.76091903 44.55988994 -113.04036558 44.56491077 C-86.87285223 44.57536643 -60.70534756 44.59295844 -34.5378418 44.61523438 C-34.54831543 43.99068359 -34.55878906 43.36613281 -34.56958008 42.72265625 C-34.61152286 39.85355766 -34.63728833 36.9845239 -34.6628418 34.11523438 C-34.67959961 33.13296875 -34.69635742 32.15070312 -34.71362305 31.13867188 C-34.77989844 21.19736302 -33.25764046 13.26678868 -26.5378418 5.61523438 C-18.58272545 -0.48320689 -9.53630222 -0.08540631 0 0 Z " fill="#010101" transform="translate(296.537841796875,15.384765625)"/>
<path d="M0 0 C0.80991898 0.00359528 1.61983795 0.00719055 2.45429993 0.01089478 C3.30300659 0.01074875 4.15171326 0.01060272 5.02613831 0.01045227 C7.84523532 0.01115168 10.66426712 0.01894539 13.48335266 0.02676392 C15.43248458 0.028628 17.38161696 0.03005195 19.33074951 0.03105164 C24.47151473 0.03487761 29.61225188 0.04470858 34.75300598 0.05575562 C39.99449789 0.06596802 45.23599431 0.07054889 50.47749329 0.07559204 C60.76982335 0.08633078 71.06213255 0.10340815 81.35444641 0.12442017 C81.37632019 1.33388306 81.37632019 1.33388306 81.39863586 2.56777954 C81.47353103 6.25378639 81.57005601 9.93892854 81.66694641 13.62442017 C81.689505 14.89285767 81.7120636 16.16129517 81.73530579 17.46817017 C81.93291477 24.36652021 82.4228018 29.85311854 85.35444641 36.12442017 C85.66382141 36.90817017 85.97319641 37.69192017 86.29194641 38.49942017 C87.70164115 40.65542388 88.9833286 41.13645441 91.35444641 42.12442017 C92.23874329 42.62457642 93.12304016 43.12473267 94.03413391 43.64004517 C97.76897211 45.30973754 100.65827695 45.61988387 104.72944641 45.81192017 C106.59729797 45.91053345 106.59729797 45.91053345 108.50288391 46.01113892 C109.44389954 46.04852173 110.38491516 46.08590454 111.35444641 46.12442017 C111.36379211 47.04255493 111.37313782 47.9606897 111.38276672 48.90664673 C111.42684573 52.32147295 111.48848373 55.73505125 111.56196594 59.14932251 C111.59014729 60.62544213 111.61137607 62.10171185 111.6254425 63.57803345 C111.64691339 65.70365073 111.69357684 67.82746895 111.74507141 69.95254517 C111.76601868 71.23032837 111.78696594 72.50811157 111.80854797 73.82461548 C112.43969493 77.63972381 113.24849463 78.88146626 116.35444641 81.12442017 C120.9022743 81.38679485 123.57594748 80.25110279 126.95259094 77.38369751 C129.98958483 74.67612379 132.38767878 71.82056917 134.74262428 68.50549126 C141.94138686 58.44514168 150.29063788 48.28315408 162.96101379 45.73806763 C177.46374301 43.67574428 192.31216606 44.61889234 206.88661194 45.33914185 C213.99285362 45.65615519 221.10508039 45.7719952 228.21641541 45.92292786 C238.94117559 46.17241783 249.6277083 46.67085011 260.35444641 47.12442017 C260.35444641 75.17442017 260.35444641 103.22442017 260.35444641 132.12442017 C252.75099023 125.60717201 252.75099023 125.60717201 250.11598778 121.07625771 C244.01534496 110.72798263 235.61849744 101.70946066 224.35444641 97.12442017 C202.18918778 91.63517379 177.51156715 94.01963855 154.90683687 94.80947554 C145.98557183 95.1135922 137.06469959 95.22083678 128.13926041 95.32413089 C120.48255747 95.41892165 112.82656286 95.55995558 105.17085266 95.71426392 C104.35580678 95.73062039 103.5407609 95.74697687 102.70101666 95.76382899 C98.02478059 95.8617502 93.35022753 95.98411127 88.67560387 96.1414814 C87.26407985 96.18660112 85.85233694 96.2253969 84.44045258 96.25730896 C74.5391554 96.2898461 74.5391554 96.2898461 66.35444641 101.12442017 C61.62037695 106.37028092 61.20475854 110.38334566 61.19622803 117.22981262 C61.19129005 118.06542058 61.18635207 118.90102853 61.18126446 119.76195794 C61.16586315 122.57182286 61.15752171 125.38166489 61.14912415 128.19155884 C61.13954769 130.20183006 61.12953775 132.21209926 61.11912537 134.22236633 C61.09204503 139.68894357 61.07105241 145.15552947 61.05112338 150.62213683 C61.02928312 156.33167974 61.00188485 162.04119586 60.97506714 167.75071716 C60.92511372 178.56663902 60.88018472 189.38257573 60.83704478 200.19852668 C60.78769503 212.51035068 60.73276852 224.82214781 60.67736518 237.13394582 C60.56350446 262.46408012 60.45741059 287.79423907 60.35444641 313.12442017 C38.57444641 313.12442017 16.79444641 313.12442017 -5.64555359 313.12442017 C-4.65555359 307.51442017 -3.66555359 301.90442017 -2.64555359 296.12442017 C-2.39861717 292.96024471 -2.20455061 290.06958171 -2.27055359 286.93692017 C-2.28469299 285.82377441 -2.28469299 285.82377441 -2.29911804 284.68814087 C-2.90454857 262.21484896 -13.09390992 241.05505081 -29.10307312 225.56582642 C-47.6361819 208.24713787 -70.33049149 202.25167577 -95.15092468 202.99258423 C-110.92405858 203.82616147 -124.29395165 210.113459 -137.64555359 218.12442017 C-137.64555359 153.44442017 -137.64555359 88.76442017 -137.64555359 22.12442017 C-80.39555359 21.74942017 -80.39555359 21.74942017 -62.31254578 21.64639282 C-56.96771739 21.60648823 -56.96771739 21.60648823 -51.62290955 21.56396484 C-49.24060945 21.54626873 -46.8582785 21.53246824 -44.47593689 21.52172852 C-40.86925721 21.5047156 -37.26286837 21.47537847 -33.65629578 21.44326782 C-32.06184191 21.4400096 -32.06184191 21.4400096 -30.43517685 21.43668556 C-29.4640659 21.42553404 -28.49295494 21.41438251 -27.49241638 21.40289307 C-26.64805401 21.39736231 -25.80369164 21.39183155 -24.93374252 21.38613319 C-21.46012975 20.98883658 -19.33032387 19.95315832 -17.10575867 17.26089478 C-16.6303363 16.52363159 -16.15491394 15.78636841 -15.66508484 15.02676392 C-15.14108093 14.22561157 -14.61707703 13.42445923 -14.07719421 12.59902954 C-13.54287781 11.76178345 -13.0085614 10.92453735 -12.45805359 10.06192017 C-11.38193541 8.40391046 -10.30514821 6.74633473 -9.22758484 5.08926392 C-8.75554626 4.35312866 -8.28350769 3.61699341 -7.79716492 2.85855103 C-5.58021511 -0.47979845 -3.93601487 0.00737749 0 0 Z " fill="#E9F9FE" transform="translate(181.6455535888672,121.87557983398438)"/>
<path d="M0 0 C1.49192194 0.00138269 1.49192194 0.00138269 3.01398373 0.00279331 C4.15126919 0.00141865 5.28855465 0.00004398 6.46030331 -0.00137234 C7.71905773 0.00222294 8.97781216 0.00581821 10.27471066 0.00952244 C11.59158871 0.00937641 12.90846676 0.00923038 14.26525021 0.00907993 C17.88698982 0.00879196 21.5086966 0.01468859 25.13042855 0.02165389 C28.91142598 0.02788753 32.69242409 0.02849124 36.47342587 0.0296793 C43.63805004 0.03279258 50.80265904 0.04100594 57.96727651 0.05102879 C66.12191876 0.06219001 74.27656171 0.0677004 82.43120968 0.07272422 C99.21035107 0.08318855 115.98947717 0.10078794 132.76860714 0.12304783 C132.79048092 1.8026157 132.79048092 1.8026157 132.81279659 3.51611423 C132.870956 7.68733057 132.94818737 11.85801702 133.03105831 16.02880955 C133.06422487 17.83080512 133.09228239 19.6329025 133.11504269 21.43505955 C133.14874146 24.03201606 133.20106363 26.62804649 133.25688839 29.22461033 C133.26647327 30.42496418 133.26647327 30.42496418 133.27625179 31.6495676 C133.42053909 37.19194696 134.39599073 41.52181994 138.26860714 45.76757908 C143.59725253 49.91670661 147.59237798 50.30128719 154.15532589 50.43945408 C154.97233471 50.46023518 155.78934353 50.48101627 156.63111019 50.5024271 C159.23935748 50.56777862 161.84770489 50.62674056 164.45610714 50.68554783 C166.22499768 50.72874675 167.99387811 50.77236148 169.76274776 50.8164072 C174.09793177 50.92344526 178.43321643 51.02475327 182.76860714 51.12304783 C184.75115418 67.74526183 179.78265818 77.10951968 170.78716183 90.95654392 C167.44743645 96.19556644 164.4036626 101.5995695 161.33110714 106.99804783 C160.07967372 109.1718993 158.82706288 111.34507337 157.57329464 113.51757908 C155.65142206 116.85381892 153.72990399 120.1902625 151.8086462 123.52685642 C150.50136735 125.79693286 149.19343052 128.06663052 147.88481808 130.33593845 C146.60844489 132.55262707 145.33560162 134.77135231 144.0664587 136.99218845 C141.38507994 141.6707026 138.68944195 146.31139795 135.74516964 150.83007908 C129.53913801 160.44308417 126.85103266 169.09426038 125.18950558 180.39306736 C124.738901 183.31572418 124.20417733 186.21413424 123.65141964 189.11914158 C123.27319776 191.14116155 122.89558164 193.16329493 122.51860714 195.18554783 C122.25491329 196.57604343 122.25491329 196.57604343 121.9858923 197.99462986 C120.88148004 204.22914313 119.80232891 210.81362364 120.76860714 217.12304783 C122.72148804 219.72724827 123.56814649 220.07804646 126.83110714 220.81054783 C132.86842707 219.7564126 136.26179042 216.10815495 140.76860714 212.12304783 C142.35699536 210.76962233 143.9529439 209.42547553 145.54936886 208.08154392 C147.20857182 206.68347105 148.86187888 205.27865496 150.51470089 203.87304783 C163.03567257 193.25687416 163.03567257 193.25687416 167.18657589 190.54101658 C171.18737425 186.7944293 173.46465878 182.14814557 176.08110714 177.37304783 C176.6308923 176.38949314 177.18067745 175.40593845 177.74712276 174.39257908 C179.0970536 171.9744421 180.43710327 169.5513649 181.76860714 167.12304783 C182.09860714 167.12304783 182.42860714 167.12304783 182.76860714 167.12304783 C182.79173106 177.27570934 182.80952248 187.42836463 182.82041931 197.58104706 C182.82564803 202.29484516 182.83274548 207.0086253 182.84404659 211.72241306 C182.85487587 216.26760187 182.86088406 220.81277335 182.86348438 225.35797405 C182.86533856 227.09599741 182.86895903 228.83401977 182.8743372 230.57203579 C182.88154817 232.99783378 182.88259806 235.42355929 182.88213253 237.84936619 C182.88572781 238.57512852 182.88932308 239.30089085 182.89302731 240.04864597 C182.8826593 245.00899567 182.8826593 245.00899567 181.76860714 246.12304783 C179.39282928 246.22290939 177.04606706 246.25747307 174.66973019 246.25003147 C173.91820769 246.25159146 173.1666852 246.25315145 172.3923893 246.25475872 C169.85501533 246.25877155 167.31770039 246.25557799 164.78032589 246.25244236 C162.96901572 246.25379628 161.15770582 246.25557615 159.34639645 246.25775242 C154.41265474 246.26232791 149.47893385 246.26053672 144.54519176 246.25737333 C139.39399565 246.25485033 134.24280137 246.2571871 129.09160519 246.2587595 C120.43933955 246.26058137 111.78708243 246.25817443 103.13481808 246.25341892 C93.11633751 246.24797627 83.09787728 246.24973891 73.0793972 246.25524533 C64.49429271 246.25977596 55.90919435 246.26042725 47.32408905 246.25780666 C42.18932988 246.25624361 37.0545803 246.25605088 31.91982174 246.25934315 C27.09363377 246.26222114 22.26747215 246.26024749 17.44128704 246.25444889 C15.66466853 246.25312091 13.88804782 246.25351605 12.11143017 246.25571156 C9.696751 246.25842157 7.2821577 246.25504379 4.86748409 246.25003147 C3.7989748 246.25337755 3.7989748 246.25337755 2.70887947 246.25679123 C-2.117243 246.23719769 -2.117243 246.23719769 -3.23139286 245.12304783 C-3.33168218 241.99031559 -3.36576638 238.87954864 -3.3583765 235.74633884 C-3.35993649 234.74980321 -3.36149648 233.75326757 -3.36310375 232.72653389 C-3.36711841 229.3599926 -3.3639223 225.99349577 -3.36078739 222.62695408 C-3.36214123 220.22451851 -3.36392106 217.82208314 -3.36609745 215.41964817 C-3.37019781 209.5553122 -3.3695785 203.69098794 -3.36668481 197.82665229 C-3.36443094 193.06266694 -3.36411818 188.29868517 -3.36520863 183.53469944 C-3.36536186 182.85793551 -3.36551509 182.18117158 -3.36567297 181.48389965 C-3.36599268 180.10927892 -3.36631689 178.73465818 -3.36664556 177.36003745 C-3.36950047 164.45527529 -3.36621315 151.55052022 -3.36084519 138.64575922 C-3.35637714 127.56103677 -3.35715307 116.47632478 -3.36176395 105.39160252 C-3.36710952 92.53456894 -3.36922578 79.67754158 -3.36615169 66.82050705 C-3.36583312 65.45080344 -3.36551875 64.08109983 -3.36520863 62.71139622 C-3.36505435 62.03738901 -3.36490007 61.36338181 -3.36474112 60.66895014 C-3.36387591 55.90797118 -3.36533893 51.14699615 -3.36768818 46.3860178 C-3.37077762 39.98394433 -3.36859363 33.58188604 -3.36279392 27.17981434 C-3.36146561 24.82267509 -3.36186163 22.46553418 -3.36405659 20.10839558 C-3.36676533 16.90549299 -3.36339036 13.7026552 -3.3583765 10.49975681 C-3.36060722 9.55396039 -3.36283795 8.60816397 -3.36513627 7.63370705 C-3.34231749 0.18430861 -3.34231749 0.18430861 0 0 Z " fill="#DEECFC" transform="translate(261.2313928604126,233.87695217132568)"/>
<path d="M0 0 C0.65890179 -0.00568326 1.31780358 -0.01136651 1.99667209 -0.01722199 C4.19739998 -0.03010792 6.39628202 -0.00735422 8.59690857 0.0153656 C10.17734665 0.01350118 11.75778344 0.00946376 13.33821106 0.00341797 C17.62548928 -0.00655645 21.91210634 0.01461225 26.19928861 0.04189801 C30.68573305 0.06572973 35.17216442 0.06278307 39.65866089 0.0632019 C47.19173881 0.06782971 54.72456396 0.09147073 62.2575531 0.12767029 C70.96847322 0.16941877 79.67916575 0.18698605 88.39018017 0.19029003 C97.66295232 0.19388895 106.9356425 0.21276209 116.20838046 0.23741031 C118.88119525 0.24364018 121.5540038 0.2472757 124.22682381 0.25044441 C128.42524781 0.25634355 132.62350908 0.27265261 136.82186508 0.29704857 C138.36339371 0.30449115 139.90494282 0.30856067 141.44648933 0.30902863 C143.54912964 0.31028578 145.65134047 0.32382619 147.75390625 0.34057617 C148.93099435 0.34522668 150.10808245 0.34987719 151.32083988 0.35466862 C154.28000393 0.61182335 155.91570073 0.89107605 158.3134613 2.61473083 C160.23519689 5.47938585 160.56650022 7.79366054 160.58088684 11.20016479 C160.59368179 12.57328827 160.59368179 12.57328827 160.60673523 13.97415161 C160.60537567 15.46964287 160.60537567 15.46964287 160.60398865 16.99534607 C160.61070587 18.0510379 160.6174231 19.10672974 160.62434387 20.19441223 C160.64335651 23.68743076 160.64724958 27.18025752 160.6493988 30.67332458 C160.65582385 33.09943725 160.66255199 35.52554913 160.66957092 37.95166016 C160.68155144 43.03834327 160.68525088 48.12495843 160.68406677 53.21165466 C160.68386341 59.73322143 160.71118098 66.25435329 160.74561119 72.77581692 C160.7678342 77.78665168 160.77190574 82.79738096 160.77084732 87.80825996 C160.77320962 90.21285058 160.78206832 92.61744383 160.79751205 95.02198601 C160.81708071 98.38320895 160.81136948 101.74348326 160.79930115 105.10472107 C160.81054016 106.09969101 160.82177917 107.09466095 160.83335876 108.11978149 C160.79666405 112.13628919 160.56879584 115.0291645 158.95185852 118.73733521 C154.74520038 121.7306531 150.64984501 121.25905407 145.61326599 121.16307068 C144.52337875 121.16231033 143.43349152 121.16154999 142.31057739 121.1607666 C139.94298058 121.15624263 137.57538472 121.1403953 135.20792389 121.11462021 C131.4581093 121.07538344 127.70952296 121.06875489 123.95951843 121.07118225 C114.64351914 121.07150012 105.32787891 121.02702145 96.01213074 120.96195984 C88.14569768 120.90731365 80.27997074 120.88016282 72.41329193 120.89310074 C68.72343361 120.88823506 65.03541515 120.84313304 61.34587097 120.79743958 C59.07432335 120.79864105 56.80277557 120.80191883 54.53123474 120.80760193 C53.50964767 120.78393051 52.48806061 120.76025909 51.43551636 120.73587036 C44.86571908 120.8101642 41.5552111 122.21812727 36.89966106 126.8908186 C36.37621514 127.45970963 35.85276922 128.02860067 35.3134613 128.61473083 C34.53430359 129.36166199 33.75514587 130.10859314 32.95237732 130.87815857 C32.3303241 131.51181335 31.70827087 132.14546814 31.06736755 132.79832458 C30.37578552 133.49764099 29.68420349 134.1969574 28.97166443 134.91746521 C28.2800824 135.62193787 27.58850037 136.32641052 26.8759613 137.05223083 C25.46287178 138.49066726 24.04763157 139.92699525 22.62986755 141.36082458 C21.70863098 142.2994635 21.70863098 142.2994635 20.76878357 143.25706482 C19.3134613 144.61473083 19.3134613 144.61473083 18.3134613 144.61473083 C18.30935242 144.06011169 18.30524353 143.50549255 18.30101013 142.93406677 C18.26801949 140.40988684 18.19737752 137.88810388 18.1259613 135.36473083 C18.12016052 134.49203552 18.11435974 133.61934021 18.10838318 132.72019958 C17.96969427 128.68281135 17.84680099 126.33018651 15.3915863 123.03660583 C11.00440797 121.01004123 7.02906886 121.0940613 2.2509613 121.11473083 C0.46839532 121.12240879 -1.31435084 121.11263442 -3.09669495 121.08348083 C-3.88181458 121.08799255 -4.6669342 121.09250427 -5.47584534 121.09715271 C-8.77969112 120.37618095 -9.6924633 119.38210006 -11.6865387 116.61473083 C-12.30566484 113.10078493 -12.24286134 109.61087322 -12.21998596 106.05052185 C-12.23290932 104.43772339 -12.23290932 104.43772339 -12.24609375 102.79234314 C-12.26881716 99.23419701 -12.26200254 95.67683443 -12.25294495 92.11863708 C-12.25817785 89.64768234 -12.26445309 87.1767296 -12.27172852 84.70578003 C-12.28214468 79.52486274 -12.27755376 74.3442199 -12.26295471 69.16331482 C-12.24576968 62.52053851 -12.2692536 55.87862735 -12.30444431 49.23594761 C-12.32639441 44.13242855 -12.32498244 39.02911722 -12.316679 33.92556572 C-12.3158581 31.47632333 -12.32274785 29.0270659 -12.33745003 26.57786751 C-12.35484973 23.1541474 -12.34038911 19.73199123 -12.31764221 16.30833435 C-12.32933441 15.29466293 -12.34102661 14.28099152 -12.35307312 13.23660278 C-12.33409218 11.83400711 -12.33409218 11.83400711 -12.31472778 10.40307617 C-12.31414147 9.59432824 -12.31355516 8.78558031 -12.31295109 7.95232487 C-10.60017978 1.56074633 -6.06374642 -0.010358 0 0 Z " fill="#F3CE18" transform="translate(290.68653869628906,31.385269165039063)"/>
<path d="M0 0 C1.30943069 -0.0087616 2.61886139 -0.01752319 3.9679718 -0.02655029 C7.55284398 -0.04931389 11.13699544 -0.04052021 14.72187996 -0.02465487 C18.47651207 -0.01198028 22.2310832 -0.02374028 25.98571777 -0.03158569 C32.29055847 -0.04067779 38.59510615 -0.02870616 44.89990234 -0.00488281 C52.18522355 0.02232797 59.46984511 0.01351347 66.75514936 -0.01401484 C73.01436071 -0.03671772 79.27336165 -0.03990034 85.53260088 -0.02682149 C89.26913958 -0.01903332 93.00534959 -0.01796752 96.74186707 -0.03450394 C100.90775874 -0.05165336 105.07244769 -0.02787422 109.23828125 0 C110.47479935 -0.01012115 111.71131744 -0.02024231 112.98530579 -0.03067017 C117.81097889 0.02924551 121.13619509 0.09589982 125.38673401 2.47889709 C128.00710965 7.2708137 127.79247435 11.60228551 127.71850586 16.9831543 C127.72244858 18.12838058 127.7263913 19.27360687 127.73045349 20.45353699 C127.73716562 24.2385127 127.70799556 28.02228229 127.67773438 31.80712891 C127.67348459 34.435987 127.67115574 37.06484884 127.67066956 39.69371033 C127.66604496 45.20245694 127.64242596 50.71085738 127.60620117 56.21948242 C127.56444883 62.58556123 127.54688493 68.95132854 127.54358143 75.31753641 C127.54032719 81.44663316 127.52521718 87.57562011 127.50358772 93.70467949 C127.49469781 96.31103311 127.48797156 98.91739502 127.48342705 101.52375984 C127.47440135 105.1627104 127.45202491 108.80132555 127.42553711 112.44018555 C127.42487244 113.52133636 127.42420776 114.60248718 127.42352295 115.71640015 C127.40856026 117.2031147 127.40856026 117.2031147 127.39329529 118.71986389 C127.38864478 119.5798552 127.38399427 120.43984652 127.37920284 121.32589817 C127.09060898 123.90161972 126.51975563 125.47244185 125.11914062 127.64697266 C121.74308655 129.89767537 120.61235959 129.89945367 116.66017151 129.90766907 C115.52591736 129.91475388 114.39166321 129.92183868 113.22303772 129.92913818 C111.35511818 129.92542206 111.35511818 129.92542206 109.44946289 129.92163086 C107.48334549 129.92929726 107.48334549 129.92929726 105.47750854 129.93711853 C101.88039661 129.95052189 98.28338965 129.95108572 94.6862576 129.94855523 C91.68419895 129.9474864 88.68216162 129.95236663 85.68010753 129.95716065 C78.59816423 129.9682605 71.51627397 129.9686906 64.43432617 129.96264648 C57.12646907 129.9566055 49.81880445 129.96891967 42.51098019 129.99021655 C36.23828514 130.00782518 29.9656514 130.01383508 23.69293255 130.01057881 C19.94584003 130.00876459 16.19888481 130.01141583 12.45181465 130.02529335 C8.27382003 130.04018748 4.09621785 130.03090808 -0.08178711 130.01928711 C-1.9466703 130.03075272 -1.9466703 130.03075272 -3.84922791 130.04244995 C-4.98630188 130.03543564 -6.12337585 130.02842133 -7.29490662 130.02119446 C-8.77683581 130.02144607 -8.77683581 130.02144607 -10.28870296 130.02170277 C-13.33420986 129.58143491 -14.68671117 128.77802988 -16.88085938 126.64697266 C-17.84965877 123.74057448 -18.01517955 121.86519825 -18.03475952 118.84011841 C-18.04335999 117.85035004 -18.05196045 116.86058167 -18.06082153 115.84082031 C-18.06508148 114.75607422 -18.06934143 113.67132813 -18.07373047 112.55371094 C-18.08190796 111.410383 -18.09008545 110.26705505 -18.09851074 109.08908081 C-18.12336241 105.29848762 -18.13987812 101.5079318 -18.15429688 97.71728516 C-18.15962055 96.42443478 -18.16494423 95.1315844 -18.17042923 93.79955673 C-18.19165536 88.3676342 -18.21078623 82.93572384 -18.22205162 77.50377083 C-18.23829592 69.72293656 -18.2714945 61.9426012 -18.32845247 54.161955 C-18.37181942 48.02862608 -18.38779611 41.89549297 -18.39418411 35.76202011 C-18.40091358 33.15365925 -18.41617921 30.54530613 -18.44007492 27.93704605 C-18.47158199 24.29064943 -18.47178442 20.64551962 -18.46435547 16.99902344 C-18.4807608 15.91832581 -18.49716614 14.83762817 -18.5140686 13.72418213 C-18.47704728 9.29412772 -18.29469127 6.40442324 -16.14944458 2.47790527 C-10.94005046 -0.44019201 -5.87332815 -0.0480744 0 0 Z " fill="#020302" transform="translate(87.880859375,169.35302734375)"/>
<path d="M0 0 C15.70671043 13.42601001 24.36177951 30.95032065 26.21875 51.41015625 C26.97228193 70.21705739 19.45897663 88.6634173 7.25 102.6875 C-4.08138321 114.67748819 -20.38359639 123.65821364 -37.1015625 124.46875 C-39.27579725 124.5029756 -41.45053273 124.51265902 -43.625 124.5 C-44.76855957 124.49427979 -45.91211914 124.48855957 -47.09033203 124.48266602 C-67.38256965 124.05698481 -83.02052691 115.29197994 -97 101 C-109.58433574 87.3736492 -114.45344557 68.60784972 -114.203125 50.48046875 C-113.3249772 35.43374388 -107.13695529 20.27914744 -97 9 C-96.30648437 8.20335937 -95.61296875 7.40671875 -94.8984375 6.5859375 C-70.04544786 -20.20995687 -28.72754027 -21.73086141 0 0 Z " fill="#FD6868" transform="translate(138,355)"/>
<path d="M0 0 C0.86742195 -0.00085442 1.7348439 -0.00170885 2.62855136 -0.00258917 C5.55210134 -0.00424394 8.47559467 0.00127737 11.3991394 0.00672913 C13.48807779 0.00701102 15.57701627 0.00685321 17.66595459 0.00628662 C23.35161386 0.00599875 29.0372522 0.01189382 34.72290659 0.01886058 C40.65932517 0.02509583 46.59574418 0.02569805 52.53216553 0.02688599 C63.78021479 0.0299988 75.02825437 0.03821151 86.27629936 0.04823548 C99.07900292 0.05939817 111.88170693 0.06490746 124.68441415 0.06993091 C151.02666536 0.08039416 177.36890729 0.09819317 203.71115112 0.12025452 C203.71115112 9.36025452 203.71115112 18.60025452 203.71115112 28.12025452 C200.92008911 28.12960022 198.1290271 28.13894592 195.25338745 28.14857483 C186.03316695 28.18233742 176.81317044 28.23788238 167.59312916 28.30415726 C162.00281917 28.34367148 156.41266763 28.37584069 150.82223511 28.39125061 C145.42743499 28.40639107 140.03307038 28.4407905 134.63846397 28.48856354 C132.58002189 28.50340424 130.52151764 28.51129707 128.46302223 28.51213837 C125.58017127 28.51450165 122.69853012 28.54153009 119.81588745 28.57435608 C118.96424515 28.56932571 118.11260284 28.56429535 117.2351532 28.55911255 C113.5392146 28.62425262 111.20875249 28.85517131 107.90719604 30.61398315 C105.46520147 33.40094849 104.19911736 36.10369132 102.64278889 39.43477726 C100.16025636 44.36922431 97.58412038 49.00515239 92.23736954 51.08041763 C84.75791365 52.55404117 77.14884086 52.06902372 69.57443237 51.78041077 C67.12401194 51.74866768 64.67348294 51.72448574 62.22291565 51.70751953 C55.80020552 51.64287905 49.38412537 51.47616978 42.96401978 51.28755188 C36.40212714 51.11303292 29.83915305 51.03587679 23.27560425 50.95033264 C10.417972 50.76849697 -2.43508455 50.48202754 -15.28884888 50.12025452 C-15.41272544 44.10633305 -15.50331959 38.09315904 -15.56350708 32.07826233 C-15.58860471 30.03353432 -15.62269051 27.98889563 -15.66604614 25.94447327 C-15.72690703 23.0002384 -15.75510618 20.05719256 -15.77713013 17.11244202 C-15.80293655 16.20283722 -15.82874298 15.29323242 -15.85533142 14.35606384 C-15.85725523 9.97290928 -15.7007424 7.04251169 -12.8833313 3.5582428 C-8.68927024 -0.38284065 -5.51127807 -0.01959999 0 0 Z " fill="#C3D9EB" transform="translate(59.288848876953125,76.87974548339844)"/>
<path d="M0 0 C3.58755858 2.71877194 4.86385558 4.19366987 5.62145996 8.68066406 C5.64494351 10.1254617 5.64109673 11.57086799 5.61523438 13.015625 C5.62078339 13.80811646 5.6263324 14.60060791 5.63204956 15.41711426 C5.64383081 18.02869727 5.6195877 20.63853916 5.59375 23.25 C5.5920384 25.06933513 5.59210508 26.88867273 5.59387207 28.70800781 C5.5922197 32.5178187 5.57353713 36.32704054 5.54199219 40.13671875 C5.50231479 45.01602163 5.49794745 49.89455322 5.50545502 54.77398682 C5.50852705 58.52985682 5.49639591 62.28555397 5.47932434 66.04138184 C5.47230151 67.84028031 5.46916894 69.63919837 5.47001648 71.43811035 C5.46821531 73.95389087 5.44680692 76.46875355 5.41992188 78.984375 C5.42285248 79.72530396 5.42578308 80.46623291 5.42880249 81.22961426 C5.35615431 85.64368435 4.72267646 88.48922959 2 92 C-1.09173752 93.54586876 -3.59429552 93.29359521 -7 93 C-9.4375 91.5 -9.4375 91.5 -11 89 C-11.32111824 86.24154167 -11.18630402 83.79456032 -11 81 C-23.21100271 76.71543765 -35.0254782 73.54746908 -48 73 C-47.97381592 73.73114014 -47.94763184 74.46228027 -47.9206543 75.21557617 C-47.81649856 78.53933082 -47.75161379 81.86274194 -47.6875 85.1875 C-47.6246582 86.91323242 -47.6246582 86.91323242 -47.56054688 88.67382812 C-47.43990254 96.99828724 -47.43990254 96.99828724 -49.828125 101.26953125 C-54.5532097 103.84737919 -58.76762736 103.65177485 -64.0625 103.5 C-65.55233398 103.50386719 -65.55233398 103.50386719 -67.07226562 103.5078125 C-75.63800972 103.39244894 -75.63800972 103.39244894 -79 100 C-79.91308594 97.61157227 -79.91308594 97.61157227 -80.484375 94.81640625 C-80.80341797 93.30143555 -80.80341797 93.30143555 -81.12890625 91.75585938 C-81.33386719 90.70205078 -81.53882813 89.64824219 -81.75 88.5625 C-81.97042969 87.51255859 -82.19085938 86.46261719 -82.41796875 85.38085938 C-83.28800721 81.14144838 -84 77.34366633 -84 73 C-84.825 73.103125 -85.65 73.20625 -86.5 73.3125 C-91.18171544 72.89448969 -94.45638206 71.06005387 -98 68 C-102.31244214 62.21249306 -101.48529361 55.73808379 -101.44604492 48.85327148 C-101.43753725 46.57248597 -101.46631465 44.29421018 -101.49804688 42.01367188 C-101.49965932 40.55208408 -101.49908052 39.09049188 -101.49609375 37.62890625 C-101.49794678 36.30963135 -101.4997998 34.99035645 -101.50170898 33.63110352 C-100.71110691 27.90914504 -98.48186898 25.14264883 -93.96362305 21.65869141 C-89.07780499 19.15492526 -83.95684649 19.43490682 -78.58203125 19.4609375 C-77.48839767 19.44914459 -76.3947641 19.43735168 -75.26799011 19.42520142 C-71.78268165 19.39002842 -68.2979711 19.38078702 -64.8125 19.375 C-61.34506316 19.35856321 -57.87788898 19.33628001 -54.41056824 19.30337524 C-52.2590354 19.28402379 -50.10738363 19.2743794 -47.95576477 19.27645874 C-38.05071819 19.20736155 -28.63702403 17.95018309 -19.375 14.375 C-13.15606936 12 -13.15606936 12 -11 12 C-11.0825 10.7625 -11.165 9.525 -11.25 8.25 C-11.23373935 5.19299695 -11.10738813 4.171821 -9.4375 1.5 C-6.00863886 -0.61006839 -3.95779649 -0.62491523 0 0 Z " fill="#020200" transform="translate(413,41)"/>
<path d="M0 0 C37.29 0 74.58 0 113 0 C113 18.48 113 36.96 113 56 C108.97581949 53.98790974 106.75851923 51.79390774 103.875 48.5 C102.90676706 47.41894087 101.93667488 46.33954439 100.96484375 45.26171875 C100.47483887 44.71821777 99.98483398 44.1747168 99.47998047 43.61474609 C92.55646507 35.12129224 92.55646507 35.12129224 83.25 30.625 C76.86707415 31.36149144 73.21214523 36.77423466 69.265625 41.4140625 C65.58277414 45.61759228 61.72643719 49.6601352 57.88671875 53.72021484 C55.07970955 56.70381885 52.34850273 59.63040912 50 63 C46.1775535 62.46115292 44.76475982 60.94772136 42.375 58 C39.12121437 53.9780494 39.12121437 53.9780494 34.25 52.625 C27.86326223 53.36193128 24.21912072 58.77688338 20.26171875 63.41015625 C17.17875371 66.94039083 14.00144802 70.37805882 10.8125 73.8125 C10.20599609 74.4710498 9.59949219 75.12959961 8.97460938 75.80810547 C8.0996582 76.74807373 8.0996582 76.74807373 7.20703125 77.70703125 C6.6860083 78.2688208 6.16498535 78.83061035 5.62817383 79.40942383 C4 81 4 81 0 84 C0 56.28 0 28.56 0 0 Z " fill="#9CD26F" transform="translate(86,186)"/>
<path d="M0 0 C5.41728831 1.20176878 10.12818189 4.25723624 14.91015625 6.97216797 C16.12221198 7.64502943 17.33528959 8.31605302 18.54931641 8.98535156 C20.47104618 10.04497862 22.39201293 11.10578001 24.3097229 12.17266846 C29.2204144 14.9006883 34.17403342 17.53782561 39.15234375 20.14013672 C39.87476257 20.51873337 40.5971814 20.89733002 41.3414917 21.28739929 C44.18532029 22.77745472 47.02923776 24.26721845 49.87866211 25.74655151 C51.85887184 26.77604428 53.8340962 27.81458399 55.80859375 28.85498047 C56.93958496 29.44553223 58.07057617 30.03608398 59.23583984 30.64453125 C62.71454667 32.71591628 65.46951684 34.75233289 68.41015625 37.53466797 C69.09765625 41.03466797 69.09765625 41.03466797 68.41015625 44.53466797 C64.27110509 49.72558543 58.82836044 52.175156 52.97265625 55.09716797 C50.90009625 56.15390955 48.82850554 57.21255399 46.7578125 58.27294922 C45.17637451 59.08046631 45.17637451 59.08046631 43.56298828 59.90429688 C38.63539401 62.45242097 33.7722116 65.11418375 28.91015625 67.78466797 C27.99999756 68.28144043 27.08983887 68.77821289 26.15209961 69.29003906 C22.08092045 71.51296872 18.0196183 73.7501222 13.98046875 76.03076172 C12.66539632 76.7612876 11.35029443 77.49176046 10.03515625 78.22216797 C8.38386719 79.15609375 8.38386719 79.15609375 6.69921875 80.10888672 C2.58172388 81.89378651 -0.07734771 82.55727566 -4.58984375 82.53466797 C-7.9991765 79.94900929 -9.42045915 78.43680585 -10.21803284 74.18894958 C-10.21947548 72.27844566 -10.21947548 72.27844566 -10.22094727 70.3293457 C-10.22810257 69.62303009 -10.23525787 68.91671448 -10.24263 68.18899536 C-10.2594775 65.86475052 -10.2401427 63.54244529 -10.21875 61.21826172 C-10.21957899 59.59831076 -10.22203949 57.97835988 -10.22605896 56.3584137 C-10.2289141 52.96809485 -10.21424279 49.5784377 -10.18676758 46.18823242 C-10.15265723 41.84450926 -10.1587143 37.50196689 -10.17743015 33.15818691 C-10.1880018 29.81494822 -10.17906145 26.471984 -10.16404533 23.12877083 C-10.15886605 21.52721026 -10.15934226 19.92562101 -10.16559029 18.32406425 C-10.17104592 16.08561485 -10.15066096 13.84885275 -10.12329102 11.6105957 C-10.11709244 10.33772202 -10.11089386 9.06484833 -10.10450745 7.75340271 C-9.17308889 1.92826039 -5.87376273 -0.32586943 0 0 Z " fill="#020101" transform="translate(70.58984375,368.46533203125)"/>
<path d="M0 0 C1.11038635 -0.0112793 2.22077271 -0.02255859 3.36480713 -0.03417969 C5.18525543 -0.0220343 5.18525543 -0.0220343 7.04248047 -0.00964355 C8.96492584 -0.02015747 8.96492584 -0.02015747 10.9262085 -0.03088379 C14.43867886 -0.049114 17.9506791 -0.04205128 21.46315765 -0.02936745 C25.13951379 -0.01923803 28.81582977 -0.02863295 32.4921875 -0.03491211 C38.66592636 -0.04218872 44.8394738 -0.0326006 51.01318359 -0.0135498 C58.1501633 0.00821916 65.28668593 0.00116778 72.42365456 -0.02085543 C78.55202458 -0.03900918 84.68025703 -0.04156794 90.80864525 -0.03110075 C94.46855537 -0.0248656 98.12825067 -0.02403054 101.78814697 -0.0372467 C105.8679917 -0.05095032 109.94704887 -0.03195615 114.02685547 -0.00964355 C115.84730377 -0.02178894 115.84730377 -0.02178894 117.70452881 -0.03417969 C118.81491516 -0.02290039 119.92530151 -0.01162109 121.06933594 0 C122.03386688 0.0015081 122.99839783 0.0030162 123.99215698 0.00457001 C127.30216234 0.65988257 128.49319054 1.86556767 130.53466797 4.50793457 C131.03466797 8.00793457 131.03466797 8.00793457 130.53466797 11.50793457 C128.66758292 13.87290896 127.21405366 15.16824172 124.53466797 16.50793457 C122.83558927 16.60943681 121.13255607 16.64739168 119.4304657 16.65510559 C118.3495163 16.66226089 117.26856689 16.6694162 116.15486145 16.67678833 C114.96366196 16.67947723 113.77246246 16.68216614 112.54516602 16.68493652 C110.66945923 16.69479332 110.66945923 16.69479332 108.75585938 16.70484924 C105.31978883 16.72120566 101.88377993 16.73281181 98.447685 16.74105477 C96.30116328 16.74620436 94.15464588 16.75228011 92.00812721 16.7585659 C85.29281459 16.77761896 78.57751297 16.79184977 71.8621785 16.80017787 C64.10924031 16.80995136 56.35658754 16.836273 48.60374993 16.87667876 C42.61217114 16.9068342 36.6206742 16.92164619 30.62902099 16.92495888 C27.05003917 16.92731007 23.47136223 16.93627878 19.89246178 16.96142006 C15.89890945 16.98902074 11.90599512 16.98487149 7.91235352 16.97790527 C6.72722672 16.99071533 5.54209991 17.00352539 4.32106018 17.01672363 C-3.68792717 16.9656749 -3.68792717 16.9656749 -7.69963074 14.6035614 C-9.60577896 12.34124479 -10.124798 11.42832152 -10.02783203 8.50793457 C-10.02912109 7.84793457 -10.03041016 7.18793457 -10.03173828 6.50793457 C-8.56948235 1.34465846 -4.96622124 0.00776499 0 0 Z " fill="#040505" transform="translate(286.46533203125,309.4920654296875)"/>
<path d="M0 0 C5.72147751 4.73878099 10.72782434 9.82839735 15.70166016 15.3347168 C19.06561001 19.02859768 22.46096285 22.19117923 26.375 25.3125 C30.17903467 28.94074749 30.48266761 32.00450902 30.60205078 37.0378418 C30.5444841 40.712515 30.31993528 44.33851844 30 48 C25.4654891 48.24929646 20.93504657 48.4295585 16.39526367 48.54931641 C14.85549395 48.59927231 13.31619065 48.66727252 11.77807617 48.75439453 C-0.97019191 49.45780432 -0.97019191 49.45780432 -5.86157227 45.94482422 C-8.13131483 43.40658162 -10.0687562 40.80097619 -12 38 C-13.06475115 36.84374085 -14.1562937 35.7109423 -15.28515625 34.6171875 C-16.70068583 33.21957602 -18.11612722 31.82187263 -19.52929688 30.421875 C-20.68378982 29.27881268 -21.84150513 28.13900617 -23 27 C-18.21951583 16.64980078 -7.7391489 8.23964282 0 0 Z " fill="#FCFDFD" transform="translate(169,235)"/>
<path d="M0 0 C1.24966805 -0.00569504 1.24966805 -0.00569504 2.52458191 -0.01150513 C5.27059925 -0.01889751 8.01555177 0.00245132 10.76147461 0.02490234 C12.6728859 0.02728746 14.58429957 0.02819195 16.49571228 0.02767944 C20.49794225 0.0308051 24.4998134 0.0473536 28.50195312 0.07421875 C33.63234377 0.10822114 38.76234072 0.11584651 43.89283085 0.11432838 C47.8382086 0.11487215 51.78350028 0.12584003 55.72884941 0.14033127 C57.62068468 0.14669545 59.51252969 0.15063728 61.40437508 0.15211868 C64.04709627 0.1564544 66.6893998 0.17396055 69.33203125 0.1953125 C70.11395844 0.19440613 70.89588562 0.19349976 71.70150757 0.19256592 C78.55886628 0.27359356 78.55886628 0.27359356 81.60131836 2.48583984 C84.08170743 6.20642345 84.06469039 8.08380555 83.60131836 12.48583984 C82.11291504 14.67614746 82.11291504 14.67614746 79.60131836 16.48583984 C76.62410017 16.88038123 74.01722605 17.03311437 71.04077148 17.00341797 C70.17854477 17.01042725 69.31631805 17.01743652 68.42796326 17.0246582 C65.57917023 17.04225673 62.7313714 17.03060896 59.88256836 17.01708984 C57.90246388 17.01978423 55.92236069 17.0236662 53.94226074 17.02868652 C49.79284058 17.03458409 45.64376489 17.02601022 41.49438477 17.00732422 C36.17433503 16.98453462 30.85509244 16.9976563 25.53507233 17.02161407 C21.44641025 17.03606501 17.35793968 17.03146928 13.26927185 17.02110291 C11.30765182 17.01843368 9.34601443 17.02171226 7.38441467 17.03102112 C4.64309606 17.04117507 1.9030863 17.02570211 -0.83813477 17.00341797 C-1.64968521 17.01151489 -2.46123566 17.01961182 -3.29737854 17.0279541 C-6.91664819 16.97342026 -8.9782005 16.8066885 -11.89831543 14.57849121 C-13.51386902 12.32518105 -13.9665415 11.23008798 -13.96118164 8.48583984 C-13.9830957 7.82583984 -14.00500977 7.16583984 -14.02758789 6.48583984 C-12.00033475 0.03892301 -5.74290443 -0.08275976 0 0 Z " fill="#050606" transform="translate(290.398681640625,373.51416015625)"/>
<path d="M0 0 C0.83150574 -0.00540298 1.66301147 -0.01080597 2.51971436 -0.01637268 C5.26090382 -0.02885245 8.00104144 -0.01237426 10.7421875 0.00561523 C12.65120499 0.00546023 14.56022279 0.00397099 16.46923828 0.00120544 C20.46726417 -0.00017821 24.46493117 0.01237397 28.46289062 0.03515625 C33.58430066 0.0635407 38.70511445 0.06080308 43.8265686 0.04806614 C47.76771119 0.04110688 51.70871628 0.04890109 55.64984131 0.06132317 C57.53806023 0.06583525 59.42629392 0.06617659 61.31451416 0.06225777 C63.95477488 0.05934313 66.5942177 0.07586438 69.234375 0.09765625 C70.01270691 0.0931546 70.79103882 0.08865295 71.59295654 0.08401489 C76.09725065 0.14569822 79.04199953 0.69612304 82.6171875 3.50170898 C84.06149605 6.39032608 83.99407256 8.298186 83.6171875 11.50170898 C80.83597617 15.22452084 79.34120312 16.38554086 74.70201111 17.12989807 C73.1465376 17.15644141 71.59044537 17.15558674 70.03491211 17.1328125 C69.18229294 17.1399678 68.32967377 17.14712311 67.45121765 17.15449524 C64.64010628 17.17136911 61.83059248 17.15198948 59.01953125 17.13061523 C57.06327686 17.13144398 55.10702253 17.13390357 53.15077209 17.13792419 C49.05432127 17.14078119 44.95841751 17.12608908 40.86206055 17.09863281 C35.61038972 17.06452775 30.35969564 17.0705767 25.10797787 17.08929539 C21.06990918 17.09986103 17.03206799 17.09093188 12.99402046 17.07591057 C11.05752805 17.07072662 9.12101191 17.07121314 7.18452263 17.07745552 C4.4791842 17.08290336 1.77524711 17.06254791 -0.92993164 17.03515625 C-1.7305603 17.04168213 -2.53118896 17.04820801 -3.3560791 17.05493164 C-6.95116068 16.9930062 -8.97935809 16.81055689 -11.87571716 14.59336853 C-13.49923527 12.34012876 -13.95068036 11.25005579 -13.9453125 8.50170898 C-13.96722656 7.84170898 -13.98914063 7.18170898 -14.01171875 6.50170898 C-11.98807161 0.06625969 -5.7364952 -0.07125528 0 0 Z " fill="#030303" transform="translate(290.3828125,438.498291015625)"/>
<path d="M0 0 C5.13815167 2.94351604 8.51515144 7.02149194 11.1875 12.25 C12.36913455 18.94592912 11.62923532 25.74795487 7.75 31.4375 C2.69142728 36.64632735 -1.71827247 39.454245 -9.0625 39.8125 C-14.9344742 39.67269109 -19.4969768 38.05742538 -23.78515625 33.9765625 C-28.97225392 28.01820542 -29.76431587 23.46998464 -29.625 15.703125 C-28.97754523 10.06487301 -26.68694644 6.56516221 -22.46484375 2.87890625 C-15.74209766 -2.15958498 -7.80949558 -3.52104425 0 0 Z " fill="#010201" transform="translate(136.25,194.5625)"/>
<path d="M0 0 C3.65564909 0.68761019 6.51867272 2.25449545 9.75 4.0625 C10.73484375 4.61035156 11.7196875 5.15820312 12.734375 5.72265625 C13.48203125 6.14417969 14.2296875 6.56570313 15 7 C13.7423893 11.10897287 12.22023808 14.65406986 10.05078125 18.359375 C9.4570874 19.3803125 8.86339355 20.40125 8.25170898 21.453125 C7.61177002 22.54109375 6.97183105 23.6290625 6.3125 24.75 C5.30236249 26.48300062 4.29223436 28.21600679 3.28266907 29.94934082 C2.23135699 31.75295565 1.1777468 33.55521495 0.12402344 35.35742188 C-1.97032947 38.94383012 -4.04647927 42.54052421 -6.1171875 46.140625 C-6.45009293 46.71923279 -6.78299835 47.29784058 -7.12599182 47.89398193 C-8.71744336 50.6605411 -10.30827709 53.42745546 -11.89916992 56.19433594 C-13.04643766 58.1850753 -14.19722609 60.17379113 -15.35205078 62.16015625 C-16.46525075 64.07848841 -17.56754673 66.00318352 -18.65966797 67.93359375 C-19.18318848 68.84238281 -19.70670898 69.75117188 -20.24609375 70.6875 C-20.70556396 71.49574219 -21.16503418 72.30398438 -21.63842773 73.13671875 C-23 75 -23 75 -26 76 C-28.91796875 74.56640625 -28.91796875 74.56640625 -32.1875 72.5625 C-33.27417969 71.90378906 -34.36085938 71.24507813 -35.48046875 70.56640625 C-36.31191406 70.04949219 -37.14335937 69.53257812 -38 69 C-37.32986605 65.6085822 -36.02453945 62.9887225 -34.33203125 59.984375 C-33.77539795 58.99236084 -33.21876465 58.00034668 -32.64526367 56.97827148 C-32.04045166 55.91294189 -31.43563965 54.8476123 -30.8125 53.75 C-30.18899658 52.64406494 -29.56549316 51.53812988 -28.9230957 50.39868164 C-24.0042365 41.7016845 -18.9864065 33.0633998 -13.93237305 24.44433594 C-9.18864027 16.35093037 -4.55785082 8.19930835 0 0 Z " fill="#FBE556" transform="translate(446,330)"/>
<path d="M0 0 C1.28483276 -0.01260864 2.56966553 -0.02521729 3.89343262 -0.03820801 C5.28768464 -0.03104796 6.68193164 -0.02284391 8.07617188 -0.01367188 C9.51436627 -0.01636852 10.95255889 -0.02025238 12.39074707 -0.02526855 C15.40016087 -0.03115562 18.40909871 -0.02262697 21.41845703 -0.00390625 C25.26885108 0.01888377 29.11812981 0.0057563 32.96848297 -0.01819611 C35.93687284 -0.03267606 38.90499988 -0.02803824 41.87339783 -0.01768494 C43.29272088 -0.01502367 44.71206808 -0.01826629 46.13136292 -0.02760315 C48.11751832 -0.03780286 50.10375779 -0.01949036 52.08984375 0 C53.21837769 0.00318237 54.34691162 0.00636475 55.50964355 0.00964355 C59.24067344 0.63400773 60.91714167 1.83212044 63.54492188 4.51757812 C64.16992188 7.95507812 64.16992188 7.95507812 63.54492188 11.51757812 C61.02541119 14.68194386 59.51781453 16.31406886 55.50964355 17.15249634 C53.81684265 17.15846329 53.81684265 17.15846329 52.08984375 17.16455078 C50.80501099 17.18031158 49.52017822 17.19607239 48.19641113 17.21231079 C46.80215596 17.20336071 45.40790864 17.19310564 44.01367188 17.18164062 C42.57547598 17.18501144 41.13728286 17.18986627 39.69909668 17.19613647 C36.68958326 17.20349555 33.68081346 17.19283503 30.67138672 17.16943359 C26.82077597 17.14094447 22.97190764 17.15735389 19.12136078 17.18729591 C16.15292316 17.20539614 13.18489616 17.19959881 10.21644592 17.18665695 C8.79712211 17.18333037 7.37776056 17.18738377 5.95848083 17.19905472 C3.97232818 17.21180434 1.98604416 17.18891321 0 17.16455078 C-1.12853394 17.16057281 -2.25706787 17.15659485 -3.4197998 17.15249634 C-7.42797078 16.31406886 -8.93556744 14.68194386 -11.45507812 11.51757812 C-12.08007812 7.95507812 -12.08007812 7.95507812 -11.45507812 4.51757812 C-7.76564699 0.74716719 -5.20170082 0.01466837 0 0 Z " fill="#010102" transform="translate(339.455078125,341.482421875)"/>
<path d="M0 0 C0 11.22 0 22.44 0 34 C-7.84067254 32.87990392 -7.84067254 32.87990392 -11.453125 32.0625 C-12.23260498 31.89008789 -13.01208496 31.71767578 -13.81518555 31.54003906 C-14.61867432 31.36182617 -15.42216309 31.18361328 -16.25 31 C-23.17617944 29.49585342 -29.90901167 28.41107179 -37 28 C-37 21.07 -37 14.14 -37 7 C-31.9571875 6.38125 -31.9571875 6.38125 -26.8125 5.75 C-18.98903649 4.7373343 -11.72599183 3.37675369 -4.265625 0.76953125 C-2 0 -2 0 0 0 Z " fill="#73CEF3" transform="translate(402,70)"/>
<path d="M0 0 C18.40540541 9.2027027 18.40540541 9.2027027 27.5 14 C28.89412109 14.73283203 28.89412109 14.73283203 30.31640625 15.48046875 C32.54502753 16.65221808 34.77289277 17.82537635 37 19 C33.96232762 22.35865645 30.93791196 24.29641839 26.9140625 26.34765625 C26.04495743 26.79461098 26.04495743 26.79461098 25.15829468 27.25059509 C23.31745871 28.19513073 21.47140909 29.12891423 19.625 30.0625 C18.39287188 30.69266127 17.16109744 31.32351458 15.9296875 31.95507812 C10.63435923 34.66617055 5.32098105 37.33950948 0 40 C0 26.8 0 13.6 0 0 Z " fill="#FCFAFA" transform="translate(77,390)"/>
<path d="M0 0 C1.20560326 -0.00574036 1.20560326 -0.00574036 2.43556213 -0.01159668 C4.1325913 -0.01431418 5.82966246 -0.00696418 7.52661133 0.00976562 C10.11700447 0.03115174 12.7046156 0.00997529 15.29492188 -0.015625 C16.94662068 -0.01298114 18.59831776 -0.00785497 20.25 0 C21.02097519 -0.00809692 21.79195038 -0.01619385 22.58628845 -0.02453613 C26.27112695 0.03932933 28.5109748 0.42198849 31.68774414 2.34570312 C33.69140625 4.53125 33.69140625 4.53125 34.19140625 8.03125 C33.68158999 11.59996381 33.25474196 13.06285265 30.69140625 15.53125 C25.04970778 17.41181616 18.70358246 16.83761101 12.78613281 16.88134766 C11.14308515 16.89791457 9.50010979 16.92521479 7.85742188 16.96337891 C5.48139297 17.01824704 3.10704642 17.04003218 0.73046875 17.0546875 C0.00010406 17.07735687 -0.73026062 17.10002625 -1.48275757 17.12338257 C-5.40563417 17.10719479 -7.14497274 16.65863045 -10.27587891 14.22119141 C-12.30859375 11.53125 -12.30859375 11.53125 -12.87109375 7.96875 C-11.63027941 0.38599571 -6.80972459 -0.07132971 0 0 Z " fill="#040404" transform="translate(340.30859375,406.46875)"/>
<path d="M0 0 C0.75555679 -0.00619858 1.51111359 -0.01239716 2.28956604 -0.01878357 C3.88223996 -0.0258644 5.47498816 -0.02273799 7.06762695 -0.01000977 C9.49374808 0.00384823 11.91600168 -0.03022181 14.34179688 -0.06835938 C15.89453219 -0.0693108 17.44727229 -0.06745049 19 -0.0625 C19.71892929 -0.07575821 20.43785858 -0.08901642 21.17857361 -0.10267639 C25.03160417 -0.0320902 27.54271599 0.56413969 30.52758789 2.91821289 C33.06640625 5.56640625 33.06640625 5.56640625 33.75390625 8.56640625 C32.81962663 12.64326279 31.34140608 13.98578676 28.06640625 16.56640625 C25.05603177 17.05347003 22.62603531 17.24692033 19.625 17.1953125 C18.82030777 17.19772446 18.01561554 17.20013641 17.1865387 17.20262146 C15.49125218 17.20164497 13.795933 17.18829833 12.10083008 17.16333008 C9.50817566 17.12896284 6.91892118 17.14269263 4.32617188 17.16210938 C2.67576677 17.15521196 1.02537044 17.14554051 -0.625 17.1328125 C-1.39799942 17.13777237 -2.17099884 17.14273224 -2.96742249 17.14784241 C-6.53756359 17.0697866 -8.54801841 16.86295894 -11.41748047 14.65600586 C-13.05194968 12.4032809 -13.50147207 11.32010737 -13.49609375 8.56640625 C-13.51800781 7.90640625 -13.53992188 7.24640625 -13.5625 6.56640625 C-11.60801338 0.35089601 -5.60212781 -0.03854038 0 0 Z " fill="#040505" transform="translate(289.93359375,276.43359375)"/>
<path d="M0 0 C3.8496735 1.58420237 6.28658565 4.04281247 9.203125 6.97265625 C9.9271048 7.69732338 9.9271048 7.69732338 10.66571045 8.43663025 C11.67991024 9.45384054 12.69168919 10.47346961 13.70117188 11.49536133 C15.25335786 13.06589755 16.81349204 14.62819038 18.375 16.18945312 C26 23.85248363 26 23.85248363 26 25 C10.16 25 -5.68 25 -22 25 C-19.17831633 20.7674745 -17.20388368 17.98523876 -13.6875 14.625 C-10.0725616 11.09954028 -6.68969712 7.46666684 -3.41015625 3.62890625 C-2.32370902 2.37392427 -1.17374345 1.17374345 0 0 Z " fill="#FCFCFC" transform="translate(119,258)"/>
<path d="M0 0 C1.31806641 -0.00515625 2.63613281 -0.0103125 3.99414062 -0.015625 C5.02027466 -0.00305664 5.02027466 -0.00305664 6.06713867 0.00976562 C8.15076629 0.03115361 10.23093341 0.00997288 12.31445312 -0.015625 C13.63380859 -0.01046875 14.95316406 -0.0053125 16.3125 0 C17.51769287 0.00451172 18.72288574 0.00902344 19.96459961 0.01367188 C23.83984823 0.62929773 25.51480921 1.72771378 28.22265625 4.53125 C28.84765625 7.96875 28.84765625 7.96875 28.22265625 11.53125 C25.62566 14.83835065 24.14100896 16.35336002 19.96459961 17.16235352 C18.75940674 17.16162842 17.55421387 17.16090332 16.3125 17.16015625 C14.3334668 17.16305664 14.3334668 17.16305664 12.31445312 17.16601562 C11.6324585 17.15352783 10.95046387 17.14104004 10.24780273 17.12817383 C8.16188074 17.09377844 6.08018147 17.10754467 3.99414062 17.12695312 C-6.12484304 17.05273075 -6.12484304 17.05273075 -9.16772461 14.62084961 C-10.91798418 12.34867129 -11.32152055 11.35856539 -11.27734375 8.53125 C-11.2928125 7.54125 -11.2928125 7.54125 -11.30859375 6.53125 C-9.74854136 0.65811159 -5.41542275 0.02029198 0 0 Z " fill="#020203" transform="translate(287.77734375,341.46875)"/>
<path d="M0 0 C1.31806641 -0.00515625 2.63613281 -0.0103125 3.99414062 -0.015625 C5.02027466 -0.00305664 5.02027466 -0.00305664 6.06713867 0.00976562 C8.15076629 0.03115361 10.23093341 0.00997288 12.31445312 -0.015625 C13.63380859 -0.01046875 14.95316406 -0.0053125 16.3125 0 C17.51769287 0.00451172 18.72288574 0.00902344 19.96459961 0.01367188 C23.84037253 0.62938102 25.52132912 1.71902992 28.22265625 4.53125 C28.7631732 8.31486865 28.77028193 10.5403083 26.91015625 13.90625 C22.33705588 18.30997628 14.24737081 16.79945785 8.34765625 16.84375 C7.06761719 16.87275391 5.78757812 16.90175781 4.46875 16.93164062 C2.61830078 16.94420898 2.61830078 16.94420898 0.73046875 16.95703125 C-0.3972998 16.97161377 -1.52506836 16.98619629 -2.68701172 17.0012207 C-6.4459586 16.42956857 -8.09383917 15.17174478 -10.77734375 12.53125 C-11.40625 10.53125 -11.40625 10.53125 -11.33984375 8.53125 C-11.34113281 7.87125 -11.34242188 7.21125 -11.34375 6.53125 C-9.68652006 0.67951394 -5.46059795 0.02046126 0 0 Z " fill="#030404" transform="translate(287.77734375,406.46875)"/>
<path d="M0 0 C6.93 0 13.86 0 21 0 C21 6.93 21 13.86 21 21 C14.07 21 7.14 21 0 21 C0 14.07 0 7.14 0 0 Z " fill="#FF6968" transform="translate(328,77)"/>
<path d="M0 0 C3.74488498 1.08942109 5.26193497 1.78016376 7.4375 5 C8.05015747 10.2567524 6.52313424 13.35014008 3.9375 17.875 C3.60363281 18.46796875 3.26976562 19.0609375 2.92578125 19.671875 C2.10770018 21.12104717 1.27415257 22.56146981 0.4375 24 C-3.6655686 22.7750259 -6.92688139 21.32179479 -10.4375 18.875 C-11.21867187 18.33617187 -11.99984375 17.79734375 -12.8046875 17.2421875 C-13.38476562 16.83226562 -13.96484375 16.42234375 -14.5625 16 C-13.68223944 14.07613155 -12.78256309 12.16114042 -11.875 10.25 C-11.37613281 9.18265625 -10.87726563 8.1153125 -10.36328125 7.015625 C-7.65033975 2.47247784 -5.41372758 0 0 0 Z " fill="#FA6666" transform="translate(480.5625,281)"/>
<path d="M0 0 C7.88863139 6.76168405 7.88863139 6.76168405 11.18359375 10.05078125 C11.88291016 10.74880859 12.58222656 11.44683594 13.30273438 12.16601562 C14.00720703 12.87435547 14.71167969 13.58269531 15.4375 14.3125 C16.16904297 15.04017578 16.90058594 15.76785156 17.65429688 16.51757812 C18.34458984 17.20916016 19.03488281 17.90074219 19.74609375 18.61328125 C20.37185303 19.24016846 20.9976123 19.86705566 21.64233398 20.51293945 C23 22 23 22 23 23 C15.41 23 7.82 23 0 23 C0 15.41 0 7.82 0 0 Z " fill="#C9DDEE" transform="translate(410,246)"/>
<path d="M0 0 C4.0743356 0.84881992 5.54405875 2.30225596 8 5.625 C8.625 8.625 8.625 8.625 8 11.625 C5.54405875 14.94774404 4.0743356 16.40118008 0 17.25 C-4.0743356 16.40118008 -5.54405875 14.94774404 -8 11.625 C-8.625 8.625 -8.625 8.625 -8 5.625 C-5.54405875 2.30225596 -4.0743356 0.84881992 0 0 Z " fill="#070809" transform="translate(129,93.375)"/>
<path d="M0 0 C4.0743356 0.84881992 5.54405875 2.30225596 8 5.625 C8.625 8.625 8.625 8.625 8 11.625 C5.54405875 14.94774404 4.0743356 16.40118008 0 17.25 C-4.0743356 16.40118008 -5.54405875 14.94774404 -8 11.625 C-8.625 8.625 -8.625 8.625 -8 5.625 C-5.54405875 2.30225596 -4.0743356 0.84881992 0 0 Z " fill="#070809" transform="translate(76,93.375)"/>
<path d="M0 0 C1.9375 1.0625 1.9375 1.0625 3 3 C3.75471698 9.79245283 3.75471698 9.79245283 1.4375 13.5 C-1.94888329 15.58392818 -4.09385318 15.55802097 -8 15 C-10.4375 13.5 -10.4375 13.5 -12 11 C-12.61014545 8.1910285 -12.65360928 5.80363979 -12 3 C-8.3655827 -1.51548816 -5.40521016 -1.50144727 0 0 Z " fill="#050606" transform="translate(107,95)"/>
<path d="M0 0 C1.96534541 0.90153459 3.92210625 1.82180109 5.875 2.75 C6.96554687 3.26046875 8.05609375 3.7709375 9.1796875 4.296875 C12.04202519 6.02537809 12.93521458 6.89999181 14 10 C13.01 11.485 13.01 11.485 12 13 C6.19657726 11.51194289 1.82409121 8.40902445 -3 5 C-2.01 3.35 -1.02 1.7 0 0 Z " fill="#7DA0BD" transform="translate(458,311)"/>
<path d="M0 0 C3 0.25 3 0.25 5 2.25 C5.25 4.75 5.25 4.75 5 7.25 C3 9.25 3 9.25 0 9.5 C-3 9.25 -3 9.25 -5 7.25 C-5.25 4.75 -5.25 4.75 -5 2.25 C-3 0.25 -3 0.25 0 0 Z " fill="#F5F5F6" transform="translate(127,208.75)"/>
<path d="M0 0 C4.10801767 1.18676066 5.89448334 1.89448334 9 5 C5.7 7.64 2.4 10.28 -1 13 C-2.12758089 9.61725734 -1.81750262 8.23221777 -1.0625 4.8125 C-0.86785156 3.91144531 -0.67320312 3.01039063 -0.47265625 2.08203125 C-0.23869141 1.05142578 -0.23869141 1.05142578 0 0 Z " fill="#E0AB99" transform="translate(402,414)"/>
<path d="M0 0 C1.32 0 2.64 0 4 0 C4 4.62 4 9.24 4 14 C3.34 14 2.68 14 2 14 C-0.29612756 4.58997722 -0.29612756 4.58997722 0 0 Z " fill="#467293" transform="translate(345,114)"/>
</svg>
