<?xml version="1.0" encoding="UTF-8"?>
<svg version="1.1" xmlns="http://www.w3.org/2000/svg" width="512" height="512">
<path d="M0 0 C2.94449254 1.82558537 5.69621967 3.81849804 8.4765625 5.88671875 C9.82896055 6.85663749 11.18326443 7.82390218 12.5390625 8.7890625 C16.41451233 11.55773008 20.2664854 14.35741233 24.11376953 17.16503906 C27.89222808 19.9182618 31.68475624 22.6519241 35.4765625 25.38671875 C40.08614446 28.71311186 44.69328956 32.04273491 49.29296875 35.3828125 C50.4850293 36.24712891 50.4850293 36.24712891 51.70117188 37.12890625 C53.20218216 38.21735815 54.70226421 39.3070919 56.20117188 40.3984375 C57.5890525 41.40403542 58.98424026 42.39962914 60.38671875 43.38476562 C61.8068048 44.40536952 63.1948474 45.47176248 64.55078125 46.57617188 C70.95878034 51.49868027 76.44316916 51.65800117 84.3515625 51.51171875 C96.89561753 51.36568784 107.70173396 53.51356374 117.4765625 61.88671875 C120.06035275 64.73190412 122.30953349 67.71588883 124.4765625 70.88671875 C125.0746875 71.75296875 125.6728125 72.61921875 126.2890625 73.51171875 C129.57827886 80.09015146 129.75736706 86.19033852 129.70361328 93.41186523 C129.70390533 94.4467659 129.70419739 95.48166656 129.70449829 96.54792786 C129.70311061 99.95130953 129.68757571 103.3544693 129.671875 106.7578125 C129.66814288 109.12435283 129.66529685 111.49089471 129.66329956 113.85743713 C129.65567882 120.07331642 129.63604364 126.28910162 129.6138916 132.50494385 C129.59339962 138.85289233 129.58429067 145.20085607 129.57421875 151.54882812 C129.55279634 163.99483291 129.51867916 176.44076799 129.4765625 188.88671875 C130.71729239 188.88257068 130.71729239 188.88257068 131.98308754 188.87833881 C152.15832749 188.81193433 172.33354846 188.76236799 192.50887489 188.73128223 C202.26572228 188.71584781 212.02249648 188.69482416 221.77929688 188.66040039 C230.28851574 188.63039276 238.79768157 188.61111889 247.30695188 188.60445327 C251.80783685 188.60056017 256.30857017 188.59148315 260.80940628 188.56952858 C265.05619988 188.54898339 269.30278109 188.5429209 273.54961967 188.54739571 C275.09825614 188.54657849 276.6469006 188.54072115 278.1954937 188.52910233 C291.75160988 188.43248571 304.57464021 189.02213383 315.4765625 197.88671875 C316.30800781 198.50675781 317.13945312 199.12679687 317.99609375 199.765625 C320.57471162 201.97064784 322.25267011 204.05006193 324.1015625 206.88671875 C324.67132813 207.73234375 325.24109375 208.57796875 325.828125 209.44921875 C331.18444849 220.61880329 330.90772586 232.14642975 330.86474609 244.234375 C330.86881803 246.16739192 330.87416339 248.10040651 330.88067627 250.03341675 C330.89428165 255.25241242 330.88907934 260.47122895 330.87953901 265.69022751 C330.87190715 271.16987313 330.87899778 276.64950412 330.88369751 282.12915039 C330.88914482 291.32864109 330.88199037 300.52805937 330.86767578 309.72753906 C330.85135128 320.34081737 330.85664051 330.95392273 330.873155 341.56719685 C330.88679909 350.70387145 330.88867525 359.8404942 330.88083899 368.97717571 C330.87617853 374.42346211 330.87549266 379.8696674 330.88544846 385.31594849 C330.89415848 390.43786785 330.88802287 395.55956572 330.87076569 400.68146133 C330.86682232 402.553444 330.86789771 404.42544552 330.87455368 406.2974205 C330.92545139 422.07523504 329.96605808 434.99866436 318.5234375 446.921875 C308.64163369 456.08394113 298.42782354 458.19699347 285.29907227 458.11376953 C284.08860733 458.11406158 282.8781424 458.11435364 281.6309967 458.11465454 C278.32976417 458.11350414 275.02878517 458.10350899 271.72759748 458.08950663 C268.27095625 458.07696082 264.81431124 458.07582574 261.35765076 458.07345581 C254.82006403 458.06725231 248.28254459 458.05085689 241.74498743 458.03075683 C234.29878521 458.00836254 226.8525797 457.99739554 219.40635216 457.98736596 C204.09638337 457.96648959 188.78648163 457.93133572 173.4765625 457.88671875 C173.50274658 459.11712891 173.52893066 460.34753906 173.5559082 461.61523438 C173.64683116 466.20716971 173.70396421 470.79902645 173.7512207 475.39160156 C173.77626933 477.37415984 173.81031834 479.35662664 173.85375977 481.33886719 C173.91483869 484.19879801 173.94286879 487.05750167 173.96484375 489.91796875 C173.99065018 490.7953772 174.0164566 491.67278564 174.04304504 492.57678223 C174.04586523 498.8515785 172.52276949 503.04544402 168.4765625 507.88671875 C164.1658916 511.17103943 159.66919562 511.59786298 154.375 511.40625 C148.82984437 510.41230701 144.92228777 507.19377174 140.4765625 503.88671875 C139.12416445 502.91680001 137.76986057 501.94953532 136.4140625 500.984375 C132.53861267 498.21570742 128.6866396 495.41602517 124.83935547 492.60839844 C121.06089692 489.8551757 117.26836876 487.1215134 113.4765625 484.38671875 C108.86698054 481.06032564 104.25983544 477.73070259 99.66015625 474.390625 C98.86544922 473.81441406 98.07074219 473.23820312 97.25195312 472.64453125 C95.75094284 471.55607935 94.25086079 470.4663456 92.75195312 469.375 C91.3640725 468.36940208 89.96888474 467.37380836 88.56640625 466.38867188 C87.1463202 465.36806798 85.7582776 464.30167502 84.40234375 463.19726562 C77.99434466 458.27475723 72.50995584 458.11543633 64.6015625 458.26171875 C52.05750747 458.40774966 41.25139104 456.25987376 31.4765625 447.88671875 C28.89277225 445.04153338 26.64359151 442.05754867 24.4765625 438.88671875 C23.8784375 438.02046875 23.2803125 437.15421875 22.6640625 436.26171875 C19.37484614 429.68328604 19.19575794 423.58309898 19.24951172 416.36157227 C19.24921967 415.3266716 19.24892761 414.29177094 19.24862671 413.22550964 C19.25001439 409.82212797 19.26554929 406.4189682 19.28125 403.015625 C19.28498212 400.64908467 19.28782815 398.28254279 19.28982544 395.91600037 C19.29744618 389.70012108 19.31708136 383.48433588 19.3392334 377.26849365 C19.35972538 370.92054517 19.36883433 364.57258143 19.37890625 358.22460938 C19.40032866 345.77860459 19.43444584 333.33266951 19.4765625 320.88671875 C18.64940924 320.88948413 17.82225597 320.89224951 16.97003746 320.89509869 C-3.20520249 320.96150317 -23.38042346 321.01106951 -43.55574989 321.04215527 C-53.31259728 321.05758969 -63.06937148 321.07861334 -72.82617188 321.11303711 C-81.33539074 321.14304474 -89.84455657 321.16231861 -98.35382688 321.16898423 C-102.85471185 321.17287733 -107.35544517 321.18195435 -111.85628128 321.20390892 C-116.10307488 321.22445411 -120.34965609 321.2305166 -124.59649467 321.22604179 C-126.14513114 321.22685901 -127.6937756 321.23271635 -129.2423687 321.24433517 C-142.79848488 321.34095179 -155.62151521 320.75130367 -166.5234375 311.88671875 C-167.35488281 311.26667969 -168.18632812 310.64664062 -169.04296875 310.0078125 C-171.62158662 307.80278966 -173.29954511 305.72337557 -175.1484375 302.88671875 C-175.71820313 302.04109375 -176.28796875 301.19546875 -176.875 300.32421875 C-182.23132349 289.15463421 -181.95460086 277.62700775 -181.91162109 265.5390625 C-181.91569303 263.60604558 -181.92103839 261.67303099 -181.92755127 259.74002075 C-181.94115665 254.52102508 -181.93595434 249.30220855 -181.92641401 244.08320999 C-181.91878215 238.60356437 -181.92587278 233.12393338 -181.93057251 227.64428711 C-181.93601982 218.44479641 -181.92886537 209.24537813 -181.91455078 200.04589844 C-181.89822628 189.43262013 -181.90351551 178.81951477 -181.92003 168.20624065 C-181.93367409 159.06956605 -181.93555025 149.9329433 -181.92771399 140.79626179 C-181.92305353 135.34997539 -181.92236766 129.9037701 -181.93232346 124.45748901 C-181.94103348 119.33556965 -181.93489787 114.21387178 -181.91764069 109.09197617 C-181.91369732 107.2199935 -181.91477271 105.34799198 -181.92142868 103.476017 C-181.97232639 87.69820246 -181.01293308 74.77477314 -169.5703125 62.8515625 C-159.68850869 53.68949637 -149.47469854 51.57644403 -136.34594727 51.65966797 C-135.13548233 51.65937592 -133.9250174 51.65908386 -132.6778717 51.65878296 C-129.37663917 51.65993336 -126.07566017 51.66992851 -122.77447248 51.68393087 C-119.31783125 51.69647668 -115.86118624 51.69761176 -112.40452576 51.69998169 C-105.86693903 51.70618519 -99.32941959 51.72258061 -92.79186243 51.74268067 C-85.34566021 51.76507496 -77.8994547 51.77604196 -70.45322716 51.78607154 C-55.14325837 51.80694791 -39.83335663 51.84210178 -24.5234375 51.88671875 C-24.54962158 50.65630859 -24.57580566 49.42589844 -24.6027832 48.15820312 C-24.69370616 43.56626779 -24.75083921 38.97441105 -24.7980957 34.38183594 C-24.82314433 32.39927766 -24.85719334 30.41681086 -24.90063477 28.43457031 C-24.96171369 25.57463949 -24.98974379 22.71593583 -25.01171875 19.85546875 C-25.03752518 18.9780603 -25.0633316 18.10065186 -25.08992004 17.19665527 C-25.09274023 10.921859 -23.56964449 6.72799348 -19.5234375 1.88671875 C-13.9671524 -2.34664133 -6.34714902 -2.8002128 0 0 Z " fill="#FD5151" transform="translate(181.5234375,1.11328125)"/>
<path d="M0 0 C21.01074603 -0.07024415 42.02147255 -0.12306342 63.03231239 -0.15543652 C72.78915978 -0.17087094 82.54593398 -0.19189459 92.30273438 -0.22631836 C100.81195324 -0.25632599 109.32111907 -0.27559986 117.83038938 -0.28226548 C122.33127435 -0.28615858 126.83200767 -0.2952356 131.33284378 -0.31719017 C135.57963738 -0.33773536 139.82621859 -0.34379785 144.07305717 -0.33932304 C145.62169364 -0.34014026 147.1703381 -0.3459976 148.7189312 -0.35761642 C162.27504738 -0.45423304 175.09807771 0.13541508 186 9 C186.83144531 9.62003906 187.66289062 10.24007812 188.51953125 10.87890625 C191.09814912 13.08392909 192.77610761 15.16334318 194.625 18 C195.19476563 18.845625 195.76453125 19.69125 196.3515625 20.5625 C201.70788599 31.73208454 201.43116336 43.259711 201.38818359 55.34765625 C201.39225553 57.28067317 201.39760089 59.21368776 201.40411377 61.146698 C201.41771915 66.36569367 201.41251684 71.5845102 201.40297651 76.80350876 C201.39534465 82.28315438 201.40243528 87.76278537 201.40713501 93.24243164 C201.41258232 102.44192234 201.40542787 111.64134062 201.39111328 120.84082031 C201.37478878 131.45409862 201.38007801 142.06720398 201.3965925 152.6804781 C201.41023659 161.8171527 201.41211275 170.95377545 201.40427649 180.09045696 C201.39961603 185.53674336 201.39893016 190.98294865 201.40888596 196.42922974 C201.41759598 201.5511491 201.41146037 206.67284697 201.39420319 211.79474258 C201.39025982 213.66672525 201.39133521 215.53872677 201.39799118 217.41070175 C201.44888889 233.18851629 200.48949558 246.11194561 189.046875 258.03515625 C179.16507119 267.19722238 168.95126104 269.31027472 155.82250977 269.22705078 C154.61204483 269.22734283 153.4015799 269.22763489 152.1544342 269.22793579 C148.85320167 269.22678539 145.55222267 269.21679024 142.25103498 269.20278788 C138.79439375 269.19024207 135.33774874 269.18910699 131.88108826 269.18673706 C125.34350153 269.18053356 118.80598209 269.16413814 112.26842493 269.14403808 C104.82222271 269.12164379 97.3760172 269.11067679 89.92978966 269.10064721 C74.61982087 269.07977084 59.30991913 269.04461697 44 269 C44.02618408 270.23041016 44.05236816 271.46082031 44.0793457 272.72851562 C44.17026866 277.32045096 44.22740171 281.9123077 44.2746582 286.50488281 C44.29970683 288.48744109 44.33375584 290.46990789 44.37719727 292.45214844 C44.43827619 295.31207926 44.46630629 298.17078292 44.48828125 301.03125 C44.51408768 301.90865845 44.5398941 302.78606689 44.56648254 303.69006348 C44.56930273 309.96485975 43.04620699 314.15872527 39 319 C34.6893291 322.28432068 30.19263312 322.71114423 24.8984375 322.51953125 C19.35328187 321.52558826 15.44572527 318.30705299 11 315 C9.64760195 314.03008126 8.29329807 313.06281657 6.9375 312.09765625 C3.06205017 309.32898867 -0.7899229 306.52930642 -4.63720703 303.72167969 C-8.41566558 300.96845695 -12.20819374 298.23479465 -16 295.5 C-20.60958196 292.17360689 -25.21672706 288.84398384 -29.81640625 285.50390625 C-30.61111328 284.92769531 -31.40582031 284.35148437 -32.22460938 283.7578125 C-33.72561966 282.6693606 -35.22570171 281.57962685 -36.72460938 280.48828125 C-38.11249 279.48268333 -39.50767776 278.48708961 -40.91015625 277.50195312 C-42.3302423 276.48134923 -43.7182849 275.41495627 -45.07421875 274.31054688 C-51.48221784 269.38803848 -56.96660666 269.22871758 -64.875 269.375 C-77.41905503 269.52103091 -88.22517146 267.37315501 -98 259 C-100.58379025 256.15481463 -102.83297099 253.17082992 -105 250 C-105.598125 249.13375 -106.19625 248.2675 -106.8125 247.375 C-110.11601256 240.76797489 -110.28052233 234.63620281 -110.22705078 227.38305664 C-110.22748886 225.81607529 -110.22748886 225.81607529 -110.22793579 224.21743774 C-110.22654798 220.78159129 -110.21101248 217.34596459 -110.1953125 213.91015625 C-110.19158042 211.52119566 -110.18873437 209.13223354 -110.18673706 206.74327087 C-110.17911596 200.46820825 -110.15948048 194.19323881 -110.1373291 187.91821289 C-110.11683789 181.50994121 -110.10772834 175.10165441 -110.09765625 168.69335938 C-110.07623322 156.12886659 -110.04250231 143.56443826 -110 131 C-109.03692932 130.99857498 -108.07385864 130.99714996 -107.081604 130.99568176 C-97.96110493 130.97893974 -88.84104791 130.93594774 -79.72078323 130.86790943 C-75.03302997 130.83376414 -70.3455983 130.80854897 -65.65771484 130.80444336 C-61.12512818 130.8001335 -56.59326544 130.77145046 -52.06090546 130.72656822 C-50.34039289 130.71367848 -48.61979331 130.70925497 -46.89923859 130.71384621 C-33.7488359 130.74073945 -23.06521318 129.27059109 -13 120 C-12.34 120 -11.68 120 -11 120 C-10.72027344 119.41347656 -10.44054687 118.82695312 -10.15234375 118.22265625 C-9.08154419 116.15728354 -7.88580334 114.34618986 -6.5625 112.4375 C0.50364376 100.87768825 -0.52681645 87.77939566 -0.48828125 74.70703125 C-0.47141458 72.54797863 -0.4532617 70.38893571 -0.43388367 68.22990417 C-0.3865935 62.57969189 -0.35664871 56.92951897 -0.33044434 51.2791748 C-0.30053249 45.50049065 -0.25403887 39.72194179 -0.20898438 33.94335938 C-0.1231902 22.62897733 -0.05573914 11.31456726 0 0 Z " fill="#FDBF07" transform="translate(311,190)"/>
<path d="M0 0 C2.94449254 1.82558537 5.69621967 3.81849804 8.4765625 5.88671875 C9.82896055 6.85663749 11.18326443 7.82390218 12.5390625 8.7890625 C16.41451233 11.55773008 20.2664854 14.35741233 24.11376953 17.16503906 C27.89222808 19.9182618 31.68475624 22.6519241 35.4765625 25.38671875 C40.08614446 28.71311186 44.69328956 32.04273491 49.29296875 35.3828125 C50.4850293 36.24712891 50.4850293 36.24712891 51.70117188 37.12890625 C53.20218216 38.21735815 54.70226421 39.3070919 56.20117188 40.3984375 C57.5890525 41.40403542 58.98424026 42.39962914 60.38671875 43.38476562 C61.8068048 44.40536952 63.1948474 45.47176248 64.55078125 46.57617188 C70.95878034 51.49868027 76.44316916 51.65800117 84.3515625 51.51171875 C96.89561753 51.36568784 107.70173396 53.51356374 117.4765625 61.88671875 C120.06035275 64.73190412 122.30953349 67.71588883 124.4765625 70.88671875 C125.0746875 71.75296875 125.6728125 72.61921875 126.2890625 73.51171875 C129.21496933 79.36353241 129.77004373 84.94898379 129.74398804 91.34768677 C129.74851915 92.17345652 129.75305026 92.99922626 129.75771868 93.85001934 C129.77032859 96.60335835 129.7687445 99.35649868 129.76708984 102.10986328 C129.77307735 104.0897802 129.77988341 106.06969479 129.78744507 108.04960632 C129.80509279 113.41974064 129.80980003 118.7898112 129.81107664 124.15997171 C129.81249986 127.51918987 129.81677276 130.8783919 129.82207108 134.23760605 C129.84056954 145.96896134 129.84874219 157.70027123 129.84716797 169.43164062 C129.84596765 180.34644616 129.86704896 191.26105359 129.8986553 202.17580903 C129.92486148 211.56207235 129.93553339 220.94827117 129.93425715 230.33457077 C129.93374866 235.93358887 129.93936905 241.53243101 129.96061325 247.13141251 C129.98006797 252.40267816 129.98007074 257.67360135 129.96557999 262.94487953 C129.96349953 264.87127372 129.96814688 266.79768974 129.9803009 268.72404671 C130.06537848 283.15187688 129.39835145 296.33952541 119.1015625 307.44921875 C118.2353125 308.25359375 117.3690625 309.05796875 116.4765625 309.88671875 C115.6309375 310.71171875 114.7853125 311.53671875 113.9140625 312.38671875 C102.32604243 321.49555815 89.7087614 320.49621159 75.7265625 320.19921875 C73.66148546 320.17409419 71.59637883 320.1512884 69.53125 320.13085938 C64.51228026 320.07621815 59.49475359 319.99017676 54.4765625 319.88671875 C56.71496582 317.64831543 58.27149746 317.126401 61.2265625 316.07421875 C65.85212048 314.30287068 68.82257583 312.17530675 72.4765625 308.88671875 C73.1365625 308.88671875 73.7965625 308.88671875 74.4765625 308.88671875 C74.75628906 308.29890625 75.03601563 307.71109375 75.32421875 307.10546875 C76.39119414 305.05108901 77.58421843 303.27584304 78.9140625 301.38671875 C85.67569944 290.38640554 84.90816208 277.65023614 84.86474609 265.21606445 C84.86881776 263.24862376 84.87416296 261.28118535 84.88067627 259.31375122 C84.89428223 254.00198577 84.88907982 248.6903963 84.87953901 243.37862802 C84.87191067 237.80548923 84.87899651 232.23236488 84.88369751 226.65922546 C84.88914448 217.30591137 84.88198985 207.9526685 84.86767578 198.59936523 C84.85133701 187.79857603 84.856651 176.99795663 84.873155 166.19717151 C84.88678296 156.90513131 84.88868354 147.61314213 84.88083899 138.32109517 C84.87617154 132.77933067 84.8755124 127.23764593 84.88544846 121.69588661 C84.8941354 116.48779624 84.88806458 111.27992431 84.87076569 106.07185745 C84.8668107 104.16475092 84.8679179 102.2576259 84.87455368 100.35052681 C84.88279814 97.73977161 84.87241319 95.12970874 84.85751343 92.51899719 C84.86420559 91.77131759 84.87089776 91.023638 84.87779272 90.25330144 C84.76874581 80.3472256 80.86551382 72.33434023 74.4765625 64.88671875 C64.97708829 56.08111918 55.54384472 52.66309322 42.74829102 52.96777344 C29.17575568 53.15362786 21.65791042 50.40984811 11.52441406 41.61572266 C7.98547725 38.62779341 4.18762695 36.00457888 0.4140625 33.32421875 C-1.07423112 32.2382982 -2.56251245 31.15236081 -4.05078125 30.06640625 C-7.05427903 27.90040324 -10.10144852 25.83669707 -13.21484375 23.83203125 C-13.96048584 23.34549072 -14.70612793 22.8589502 -15.47436523 22.35766602 C-16.88817628 21.44174508 -18.31312504 20.54271627 -19.75024414 19.66381836 C-21.65625 18.421875 -21.65625 18.421875 -24.5234375 15.88671875 C-25.46382335 10.77990117 -23.81803726 7.76158174 -20.9921875 3.65625 C-15.94281097 -2.42717438 -6.96287848 -3.07185815 0 0 Z " fill="#D22F2F" transform="translate(181.5234375,1.11328125)"/>
<path d="M0 0 C6.72192965 -0.07683832 13.44374371 -0.12892623 20.16601562 -0.16479492 C22.44698316 -0.17976739 24.72792247 -0.20015257 27.00878906 -0.22631836 C60.1971133 -0.59717825 60.1971133 -0.59717825 72 9 C72.83144531 9.62003906 73.66289062 10.24007812 74.51953125 10.87890625 C77.09814912 13.08392909 78.77610761 15.16334318 80.625 18 C81.19476563 18.845625 81.76453125 19.69125 82.3515625 20.5625 C87.70788599 31.73208454 87.43116336 43.259711 87.38818359 55.34765625 C87.39225553 57.28067317 87.39760089 59.21368776 87.40411377 61.146698 C87.41771915 66.36569367 87.41251684 71.5845102 87.40297651 76.80350876 C87.39534465 82.28315438 87.40243528 87.76278537 87.40713501 93.24243164 C87.41258232 102.44192234 87.40542787 111.64134062 87.39111328 120.84082031 C87.37478878 131.45409862 87.38007801 142.06720398 87.3965925 152.6804781 C87.41023659 161.8171527 87.41211275 170.95377545 87.40427649 180.09045696 C87.39961603 185.53674336 87.39893016 190.98294865 87.40888596 196.42922974 C87.41759598 201.5511491 87.41146037 206.67284697 87.39420319 211.79474258 C87.39025982 213.66672525 87.39133521 215.53872677 87.39799118 217.41070175 C87.44888889 233.18851629 86.48949558 246.11194561 75.046875 258.03515625 C65.05120447 267.30279566 54.77567136 269.31495629 41.50390625 269.1953125 C40.31522446 269.1924826 39.12654266 269.18965271 37.90184021 269.18673706 C34.12195582 269.17558206 30.34231224 269.15048566 26.5625 269.125 C23.99284197 269.11496417 21.42318022 269.10583937 18.85351562 269.09765625 C12.56892887 269.07565801 6.28448165 269.04222689 0 269 C0 268.67 0 268.34 0 268 C0.71285156 267.89042969 1.42570312 267.78085937 2.16015625 267.66796875 C13.7758099 265.74505435 23.51423292 261.47963962 31 252 C35.9277165 243.31165775 38.30927559 234.56919994 38.26742554 224.64656067 C38.27195665 223.84443781 38.27648776 223.04231495 38.28115618 222.21588534 C38.29373908 219.54856749 38.29218378 216.88145543 38.29052734 214.21411133 C38.29651648 212.29315938 38.30332292 210.37220984 38.31088257 208.45126343 C38.32851225 203.24647189 38.33323672 198.04174617 38.33451414 192.83692765 C38.33593822 189.58038736 38.34021273 186.32386366 38.34550858 183.0673275 C38.36400009 171.69257932 38.37218044 160.31787794 38.37060547 148.94311523 C38.36940489 138.36286019 38.39049311 127.78280941 38.4220928 117.20260602 C38.44830205 108.10082095 38.45897079 98.9991024 38.45769465 89.89727992 C38.45718631 84.46930198 38.46279847 79.04150559 38.48405075 73.61356544 C38.50351107 68.50397592 38.5035045 63.39473966 38.48901749 58.28513718 C38.48693781 56.4184066 38.49157963 54.55165346 38.5037384 52.68496132 C38.59863397 37.09622533 37.06289796 24.01114636 26 12 C20.3973525 6.90668409 14.1407939 4.82688293 6.91796875 2.859375 C4.38805791 2.11428747 2.32397514 1.20990297 0 0 Z " fill="#FE9700" transform="translate(425,190)"/>
<path d="M0 0 C3.67352987 0.0314874 5.02497629 0.17654817 8.25 2.125 C11.87358789 6.08829925 12.49488688 8.23204694 12.4453125 13.51171875 C12.43886719 14.72021484 12.43242187 15.92871094 12.42578125 17.17382812 C12.40902344 18.43646484 12.39226562 19.69910156 12.375 21 C12.36597656 22.27423828 12.35695313 23.54847656 12.34765625 24.86132812 C12.32405641 28.01190627 12.29113194 31.16210983 12.25 34.3125 C12.95077667 34.30139694 13.65155334 34.29029388 14.37356567 34.27885437 C20.99383766 34.1784619 27.61389571 34.10243935 34.23475838 34.05343914 C37.63828256 34.02739976 41.04117519 33.99210908 44.44433594 33.93530273 C48.36124989 33.8703336 52.27791258 33.84627247 56.1953125 33.82421875 C57.41115021 33.79841232 58.62698792 33.7726059 59.87966919 33.74601746 C69.31645746 33.74289327 69.31645746 33.74289327 73.00341797 36.71801758 C76.34113485 40.57260542 76.65374872 43.01207798 76.59765625 47.98828125 C75.99665192 52.00623153 74.23265089 53.59497364 71.25 56.3125 C67.67501483 58.05224873 64.68583356 58.59398044 60.73046875 58.7265625 C59.1980957 58.78457031 59.1980957 58.78457031 57.63476562 58.84375 C56.57966797 58.8746875 55.52457031 58.905625 54.4375 58.9375 C53.36306641 58.97617188 52.28863281 59.01484375 51.18164062 59.0546875 C48.53792912 59.14868613 45.8942195 59.23434573 43.25 59.3125 C42.80011719 60.40304688 42.35023438 61.49359375 41.88671875 62.6171875 C35.57023949 77.56301093 27.85927064 91.92898274 17.25 104.3125 C26.61521508 112.31195455 38.04998804 116.71227114 49.90625 119.640625 C54.13921369 120.85407459 57.89479518 122.60376349 60.6875 126.125 C61.7952555 130.43293807 61.85179089 133.98856004 60 138.0625 C57.20941926 141.65038953 55.36589542 142.99668054 50.9375 144.25 C34.71014732 145.73070816 17.35099577 134.72107181 4.25 126.3125 C3.528125 125.70664063 2.80625 125.10078125 2.0625 124.4765625 C0.34799998 123.13440788 0.34799998 123.13440788 -1.609375 123.3671875 C-4.64412871 124.70735246 -7.27734077 126.56631844 -10 128.4375 C-22.4722962 136.69023084 -40.49223497 146.36033613 -55.75 143.3125 C-58.54415127 142.38111624 -59.58581667 141.50600179 -61.5 139.25 C-63.18652767 135.28665997 -63.80318586 131.53217228 -62.75 127.3125 C-59.13017604 121.71822661 -55.90938717 120.19118954 -49.5625 118.6875 C-48.0343028 118.27922287 -46.50694861 117.86777683 -44.98046875 117.453125 C-44.24876465 117.25912109 -43.51706055 117.06511719 -42.76318359 116.86523438 C-34.15952216 114.5030358 -27.10064771 110.28746309 -19.75 105.3125 C-21.14733894 102.32300083 -22.79558369 99.77943562 -24.75 97.125 C-44.75 68.77426931 -44.75 68.77426931 -44.75 58.3125 C-45.31920166 58.33344727 -45.88840332 58.35439453 -46.47485352 58.37597656 C-49.08721816 58.45980994 -51.69929884 58.51136818 -54.3125 58.5625 C-55.65538086 58.61277344 -55.65538086 58.61277344 -57.02539062 58.6640625 C-63.1864953 58.7543351 -66.71664398 57.9219461 -71.75 54.3125 C-74.19434406 51.39505709 -74.7056259 49.66115365 -75.1875 45.875 C-74.66894272 41.65246212 -73.41649168 39.5884755 -70.75 36.3125 C-67.34317436 34.04128291 -66.17202816 34.06781113 -62.17700195 34.08544922 C-61.03604568 34.08560028 -59.89508942 34.08575134 -58.71955872 34.08590698 C-57.48823715 34.09622955 -56.25691559 34.10655212 -54.98828125 34.1171875 C-53.09688667 34.12143234 -53.09688667 34.12143234 -51.1672821 34.12576294 C-47.81839578 34.13506875 -44.46978209 34.15303297 -41.12097168 34.1751709 C-37.70241653 34.19564614 -34.2838332 34.20476824 -30.86523438 34.21484375 C-24.16008081 34.2369182 -17.45505615 34.27040638 -10.75 34.3125 C-10.77618408 33.49048096 -10.80236816 32.66846191 -10.8293457 31.8215332 C-10.9334144 28.08955062 -10.99836128 24.3578734 -11.0625 20.625 C-11.10439453 19.33142578 -11.14628906 18.03785156 -11.18945312 16.70507812 C-11.20556641 15.45791016 -11.22167969 14.21074219 -11.23828125 12.92578125 C-11.26446533 11.77891846 -11.29064941 10.63205566 -11.31762695 9.45043945 C-10.58124626 5.37960027 -8.84924144 3.94316458 -5.75 1.3125 C-4.10962605 -0.32787395 -2.25523159 0.06338669 0 0 Z " fill="#283238" transform="translate(154.75,110.6875)"/>
<path d="M0 0 C0.88042969 -0.0515625 1.76085937 -0.103125 2.66796875 -0.15625 C11.25001295 1.63478531 17.89232298 9.12352981 23.86328125 15.1171875 C24.68450974 15.93317413 25.50573822 16.74916077 26.35185242 17.58987427 C28.07402331 19.30566049 29.79238538 21.02527748 31.50708008 22.74853516 C34.12284147 25.37283442 36.75677593 27.9778793 39.39257812 30.58203125 C41.07144368 32.25928516 42.74921614 33.93763408 44.42578125 35.6171875 C45.20810623 36.3882785 45.99043121 37.15936951 46.79646301 37.9538269 C52.0859536 43.31115715 56.87931943 48.73931786 57.25 56.625 C56.61702557 62.23134499 55.01094237 65.6662168 50.75 69.3125 C46.97895305 72.12072645 45.19880421 72.69215877 40.5625 72.8125 C39.62921875 72.84988281 38.6959375 72.88726562 37.734375 72.92578125 C31.48859148 72.01563365 27.153802 67.11524745 22.9375 62.75 C22.43992187 62.24339844 21.94234375 61.73679687 21.4296875 61.21484375 C20.21926798 59.98114693 19.01520147 58.74122216 17.8125 57.5 C17.71083735 64.63488557 17.64092409 71.76958338 17.59277344 78.9050293 C17.57269429 81.33088156 17.54542525 83.75668563 17.51074219 86.18237305 C17.46206322 89.67508862 17.4394935 93.16716259 17.421875 96.66015625 C17.40122986 97.73959 17.38058472 98.81902374 17.35931396 99.9311676 C17.35742105 106.3251339 17.76638864 110.42639152 21.8125 115.5 C26.3669406 118.68485524 30.66139392 118.92837117 36.0625 118.90625 C37.22700684 118.92250427 37.22700684 118.92250427 38.41503906 118.93908691 C40.88094509 118.97317036 43.34639005 118.98890443 45.8125 119 C49.06293938 119.01462443 52.31236007 119.04838431 55.5625 119.09375 C56.30016602 119.09072876 57.03783203 119.08770752 57.79785156 119.08459473 C64.13854025 119.17606098 68.04914024 120.7767166 72.5625 125.1875 C75.65839447 129.24522576 77.03406548 133.5033269 76.65625 138.61328125 C75.68913581 143.55114313 73.81531841 146.3159399 69.8125 149.5 C64.99754684 152.43493867 60.89285915 152.94259024 55.37109375 152.8984375 C54.16490135 152.90274277 54.16490135 152.90274277 52.93434143 152.90713501 C51.23576146 152.90916964 49.53715774 152.90368189 47.83862305 152.89111328 C45.28183317 152.87519815 42.7266598 152.89090482 40.16992188 152.91015625 C26.41872812 152.92898548 14.28477907 151.76977007 2.8125 143.5 C2.16539063 143.0359375 1.51828125 142.571875 0.8515625 142.09375 C-7.89230935 135.22083763 -14.01991295 123.96192353 -15.72900391 113.03930664 C-16.36064474 107.63221311 -16.41754312 102.21960312 -16.50390625 96.78125 C-16.52468735 95.68276733 -16.54546844 94.58428467 -16.56687927 93.45251465 C-16.63188623 89.96840231 -16.69103111 86.48421924 -16.75 83 C-16.79323175 80.62759706 -16.83684748 78.25520109 -16.88085938 75.8828125 C-16.98751706 70.08861487 -17.08937115 64.29434801 -17.1875 58.5 C-17.91195312 59.25925781 -18.63640625 60.01851563 -19.3828125 60.80078125 C-20.35896209 61.805089 -21.33554795 62.80897283 -22.3125 63.8125 C-22.786875 64.31201172 -23.26125 64.81152344 -23.75 65.32617188 C-27.59178748 69.24583342 -31.39542445 72.06471856 -36.96875 72.93359375 C-42.8699879 72.94207254 -46.66359198 72.69289036 -51.1875 68.5 C-54.79800075 64.20643154 -56.41442908 60.11730107 -56.1875 54.5 C-54.20611237 46.41375212 -49.24448557 41.87643522 -43.41015625 36.1640625 C-42.43658585 35.19474978 -41.46398082 34.22446659 -40.49229431 33.25326538 C-38.46311371 31.23022128 -36.42599759 29.21567174 -34.38208008 27.20751953 C-31.76632927 24.63718993 -29.16623281 22.05170829 -26.57125187 19.46042824 C-24.56713995 17.46074888 -22.55764235 15.46655977 -20.54620171 13.47425461 C-19.1199117 12.06111279 -17.69605188 10.64551955 -16.27223206 9.22988892 C-15.40130417 8.37494843 -14.53037628 7.52000793 -13.63305664 6.63916016 C-12.86933243 5.88607574 -12.10560822 5.13299133 -11.31874084 4.35708618 C-7.69174385 1.1966522 -4.78627565 0.16575846 0 0 Z " fill="#263238" transform="translate(64.1875,336.5)"/>
<path d="M0 0 C1.14241402 -0.00855011 1.14241402 -0.00855011 2.3079071 -0.01727295 C3.92604182 -0.02672312 5.54419579 -0.033257 7.16235352 -0.03710938 C9.58972121 -0.04668951 12.01619499 -0.07765708 14.44335938 -0.109375 C32.08027209 -0.23091687 45.98459883 2.64584158 59.2890625 15.01171875 C68.91446747 25.37611834 71.9193942 37.99272773 71.93359375 51.74609375 C71.95013 52.99570389 71.96666626 54.24531403 71.98370361 55.53279114 C72.0237395 58.81577258 72.04727536 62.09829778 72.06243896 65.38146973 C72.08217306 68.74730814 72.12412306 72.11286707 72.1640625 75.47851562 C72.23765803 82.05331634 72.28946255 88.6280103 72.32421875 95.203125 C73.12085938 94.37167969 73.9175 93.54023437 74.73828125 92.68359375 C75.80818278 91.58553692 76.87851845 90.48790297 77.94921875 89.390625 C78.47128906 88.84341797 78.99335938 88.29621094 79.53125 87.73242188 C83.43673094 83.75461722 87.22076368 80.72825231 92.88671875 79.76953125 C98.55248402 79.7604515 101.90600826 80.31089195 106.32421875 84.203125 C109.86637446 88.2239504 111.47717905 90.61594133 111.57421875 95.953125 C111.61289062 97.21382812 111.61289062 97.21382812 111.65234375 98.5 C110.98289239 104.01500402 107.98440161 107.9191317 104.17919922 111.78393555 C103.3475827 112.63469162 102.51596619 113.48544769 101.65914917 114.36198425 C100.76229401 115.26217789 99.86543884 116.16237152 98.94140625 117.08984375 C98.00296812 118.03793842 97.06474961 118.98625053 96.1267395 119.93476868 C94.16336265 121.91605026 92.19394275 123.89109228 90.22070312 125.86254883 C87.70715983 128.37578754 85.214883 130.90901881 82.72747612 133.44809246 C80.79712442 135.41198404 78.85310179 137.36190238 76.90512466 139.30829811 C75.53518671 140.68344436 74.17889366 142.07214116 72.82296753 143.46110535 C67.8454373 148.38461975 63.44230291 152.21297346 56.32421875 153.203125 C45.07947087 153.05051327 37.67364677 142.71005178 30.30078125 135.34765625 C29.05970108 134.11156868 29.05970108 134.11156868 27.79354858 132.85050964 C26.0594648 131.12145638 24.32670438 129.39107498 22.59521484 127.65942383 C19.9412818 125.00769464 17.2794298 122.36408686 14.6171875 119.72070312 C12.92789672 118.03434357 11.23907776 116.34751122 9.55078125 114.66015625 C8.75499664 113.87155716 7.95921204 113.08295807 7.13931274 112.27046204 C6.40449677 111.53256943 5.66968079 110.79467682 4.91259766 110.03442383 C4.2661026 109.38935379 3.61960754 108.74428375 2.95352173 108.07966614 C-0.9141941 103.62504477 -1.11436378 99.69573642 -0.984375 93.9609375 C-0.50103534 89.64147164 0.59841911 87.62784762 3.32421875 84.203125 C7.99084898 80.56315342 11.85201714 79.42597947 17.77734375 79.6953125 C24.36131819 81.00806814 29.02828077 85.7854437 33.59765625 90.421875 C34.30067871 91.13279297 35.00370117 91.84371094 35.72802734 92.57617188 C36.25477051 93.11306641 36.78151367 93.64996094 37.32421875 94.203125 C37.42578053 87.04992828 37.49575241 79.89691805 37.54394531 72.74316406 C37.56403946 70.31047619 37.59131963 67.87783649 37.62597656 65.4453125 C37.67458935 61.94519145 37.69721014 58.44570998 37.71484375 54.9453125 C37.73548889 53.86071747 37.75613403 52.77612244 37.77740479 51.65866089 C37.77916236 45.72138108 37.63678878 41.70471711 33.32421875 37.203125 C28.71732052 34.08688741 24.48872601 33.77469894 19.07421875 33.796875 C18.29788086 33.78603882 17.52154297 33.77520264 16.72167969 33.76403809 C14.25577366 33.72995464 11.7903287 33.71422057 9.32421875 33.703125 C6.07377937 33.68850057 2.82435868 33.65474069 -0.42578125 33.609375 C-1.16344727 33.61239624 -1.90111328 33.61541748 -2.66113281 33.61853027 C-8.09511927 33.54014346 -12.25473687 32.41139351 -16.3203125 28.703125 C-19.79052528 24.24639689 -21.04776093 21.10423263 -20.953125 15.39453125 C-20.2599958 9.91783432 -17.87851765 6.160405 -13.61328125 2.765625 C-8.9662833 0.29381758 -5.14875232 0.03005489 0 0 Z " fill="#263238" transform="translate(387.67578125,17.796875)"/>
<path d="M0 0 C5.08571324 3.55178558 7.2987469 6.87788744 9.34375 12.75390625 C9.77379333 13.92234825 9.77379333 13.92234825 10.21252441 15.11439514 C11.16623048 17.73487001 12.08662866 20.36520736 13 23 C13.32548828 23.93253601 13.65097656 24.86507202 13.98632812 25.8258667 C16.54263443 33.17909534 19.02465211 40.55670864 21.5 47.9375 C23.07779049 52.62859815 24.65880328 57.31859953 26.2421875 62.0078125 C26.6377182 63.17953506 27.0332489 64.35125763 27.44076538 65.55848694 C30.06588204 73.30971088 32.76036911 81.03353806 35.5078125 88.7421875 C35.8597467 89.73330032 36.21168091 90.72441315 36.57427979 91.74555969 C38.22816951 96.40154292 39.89370515 101.05270626 41.58007812 105.69702148 C42.17113315 107.35640863 42.76165924 109.01598431 43.3515625 110.67578125 C43.75799484 111.77229507 43.75799484 111.77229507 44.17263794 112.89096069 C45.89252213 117.78534651 46.34863651 121.8068562 46 127 C44.7578125 129.27734375 44.7578125 129.27734375 43.125 130.9375 C42.59132813 131.50339844 42.05765625 132.06929687 41.5078125 132.65234375 C38.63647806 135.21869189 36.03194722 135.24170474 32.265625 135.5234375 C28.71645667 134.70345723 26.34999294 132.67444465 24 130 C22.62270513 127.55461296 21.73978691 125.03905053 20.875 122.375 C20.63056152 121.67294434 20.38612305 120.97088867 20.13427734 120.24755859 C19.6429313 118.83481773 19.15857701 117.41962353 18.68164062 116.00195312 C17.72315231 113.18690865 16.67069755 110.40861741 15.625 107.625 C14 103.25203252 14 103.25203252 14 101 C1.13 101 -11.74 101 -25 101 C-25.99 104.3 -26.98 107.6 -28 111 C-29.17810999 114.49645901 -30.48236689 117.93383371 -31.8125 121.375 C-32.13025391 122.25027344 -32.44800781 123.12554687 -32.77539062 124.02734375 C-34.86086504 129.39467475 -36.57809689 132.398904 -42 135 C-44.79826685 135.74586157 -47.18281573 135.66649091 -50 135 C-53.01476557 133.23541799 -55.41326678 131.17346643 -57 128 C-58.7803963 118.23842301 -54.10391479 108.96853674 -50.6875 100.0625 C-50.0179076 98.28158496 -49.34989611 96.50007485 -48.68334961 94.71801758 C-47.24251169 90.87242896 -45.79261267 87.03041651 -44.33691406 83.19042969 C-41.8780806 76.69321627 -39.46413566 70.17972151 -37.0546875 63.6640625 C-35.39124527 59.17164511 -33.72709536 54.67949023 -32.0625 50.1875 C-31.66880219 49.12483917 -31.27510437 48.06217834 -30.86947632 46.96731567 C-28.6284286 40.9262585 -26.37117391 34.89173147 -24.08624268 28.86712646 C-23.3571709 26.94274894 -22.63175281 25.01698351 -21.90985107 23.08990479 C-20.86917871 20.32131691 -19.81037165 17.5603671 -18.74609375 14.80078125 C-18.44131607 13.98175827 -18.13653839 13.16273529 -17.82252502 12.31889343 C-14.65514447 4.22911582 -9.52411394 -2.20039874 0 0 Z " fill="#283337" transform="translate(362,255)"/>
<path d="M0 0 C4.10253031 3.14440221 6.3038274 6.55777927 7.65625 11.5390625 C8.19093444 15.64733409 7.59051798 19.11199008 5.96484375 22.91015625 C2.88430089 26.84640546 -0.35563386 29.16680477 -5.03515625 30.91015625 C-11.26973384 31.61406017 -15.93576781 30.70085208 -21.03515625 26.91015625 C-25.0663768 21.97191107 -25.67785246 17.8199308 -25.41796875 11.49609375 C-24.64303272 6.26132178 -22.09761264 3.72913305 -18.03515625 0.59765625 C-12.27113652 -2.64460485 -5.98543107 -3.20525004 0 0 Z " fill="#253137" transform="translate(179.03515625,458.08984375)"/>
<path d="M0 0 C3.42917072 3.69989473 4.29969749 6.5792349 4.5 11.5 C4.30648693 16.41790102 3.37005911 19.26561017 0 23 C-4.4330195 27.00052979 -7.75868398 28.38485389 -13.80859375 28.2734375 C-18.37093574 27.70416132 -22.36713683 25.94343657 -25.35546875 22.38671875 C-28.03857108 18.01820196 -29.50270162 13.93154419 -28.62890625 8.8359375 C-27.01602116 2.84522146 -24.26680993 -0.72730519 -19 -4 C-12.21503467 -6.60960205 -5.33848327 -4.48917912 0 0 Z " fill="#253137" transform="translate(348,23)"/>
<path d="M0 0 C11.88 0 23.76 0 36 0 C26.9437751 18.1124498 26.9437751 18.1124498 21 26 C20.34 26.99 19.68 27.98 19 29 C14.47031577 27.49359231 12.5164114 23.82004974 10.0625 20 C9.62373535 19.32880127 9.1849707 18.65760254 8.73291016 17.96606445 C0 4.41594745 0 4.41594745 0 0 Z " fill="#FA5151" transform="translate(136,169)"/>
<path d="M0 0 C2.37615727 2.37615727 2.88770565 4.16098724 3.9453125 7.33984375 C4.29980469 8.40267578 4.65429688 9.46550781 5.01953125 10.56054688 C5.38433594 11.67494141 5.74914062 12.78933594 6.125 13.9375 C6.68380859 15.60329102 6.68380859 15.60329102 7.25390625 17.30273438 C10 25.60639881 10 25.60639881 10 29 C3.07 29 -3.86 29 -11 29 C-9.73422633 25.28987006 -8.46259336 21.5819264 -7.1875 17.875 C-6.83107422 16.82828125 -6.47464844 15.7815625 -6.10742188 14.703125 C-4.35211914 9.61435744 -2.59101383 4.72430914 0 0 Z " fill="#F5BA08" transform="translate(357,303)"/>
<path d="M0 0 C0.66 0.33 1.32 0.66 2 1 C-0.31 3.31 -2.62 5.62 -5 8 C-5.33 7.34 -5.66 6.68 -6 6 C-4 4 -2 2 0 0 Z " fill="#DC3737" transform="translate(165,1)"/>
</svg>
